<?xml version="1.0" encoding="utf-8"?>
<!-- Generator: Adobe Illustrator 23.0.3, SVG Export Plug-In . SVG Version: 6.00 Build 0)  -->
<svg version="1.1" id="Layer_1" xmlns="http://www.w3.org/2000/svg" xmlns:xlink="http://www.w3.org/1999/xlink" x="0px" y="0px"
	 viewBox="0 0 595.28 595.28" style="enable-background:new 0 0 595.28 595.28;" xml:space="preserve">
<style type="text/css">
	.st0{fill:#6C4D74;}
	.st1{fill:#E07A4A;}
	.st2{fill:#D55D92;}
	.st3{fill:#CB5371;}
	.st4{fill:#96964F;}
	.st5{fill:#D9AC3D;}
	.st6{fill:#D04944;}
	.st7{fill:#B57C43;}
	.st8{fill:#459642;}
	.st9{fill:#603A17;}
</style>
<g>
	<path class="st0" d="M293.24,314.56c-0.53,11.19,8.12,20.68,19.3,21.21c11.19,0.53,20.68-8.12,21.21-19.3
		c0.53-11.19-8.12-20.68-19.3-21.21C303.26,294.73,293.76,303.38,293.24,314.56z M309.4,319.87c-2.51-0.12-4.44-2.25-4.33-4.75
		c0.12-2.51,2.25-4.44,4.75-4.33c2.51,0.12,4.44,2.25,4.33,4.75C314.03,318.05,311.9,319.99,309.4,319.87z M258.73,294.38
		c-11.19-0.53-20.68,8.12-21.21,19.3c-0.53,11.19,8.12,20.68,19.3,21.21c11.19,0.53,20.68-8.12,21.21-19.3
		C278.56,304.4,269.92,294.9,258.73,294.38z M262.1,319.39c-2.51-0.12-4.44-2.25-4.33-4.75c0.12-2.51,2.25-4.44,4.75-4.33
		c2.51,0.12,4.44,2.25,4.33,4.75C266.73,317.57,264.61,319.5,262.1,319.39z M423.51,415.14c-0.64-1-1.7-1.58-2.89-1.58
		c-1.19,0-2.24,0.58-2.89,1.58l-29.52,46.14c-0.69,1.07-0.73,2.38-0.12,3.49c0.61,1.12,1.73,1.78,3.01,1.78h59.03
		c1.27,0,2.4-0.67,3.01-1.78c0.61-1.11,0.57-2.42-0.12-3.49l-21.76-34.02L423.51,415.14z M393.49,461.82l16.57-25.89l10.57-16.53
		l3.93,6.14l23.21,36.27H393.49z M573.73,445.32c-0.52-0.03-0.97-0.01-1.35,0.07c-5.95,1.41-11.46,3.78-16.67,6.99
		c-2.38,1.43-8.79,7.86-11.86,12.09c-0.96,1.42-1.59,2.19-3.23,2.05c-1.25-0.08-1.71-1.16-2.11-2.19c-0.15-0.43-0.32-0.65-0.39-1.03
		c-1.11-3.03-2.85-7.68-5.12-8.02c-1.6,0.44-3.79,3.85-4.03,5.97c-0.46,2.22-0.73,4.48-1.01,6.73c-0.35,2.81-0.29,6.08,0.4,8.81
		c0.55,2.17,1.41,4.24,2.45,6.21c1.01,1.9,2.22,3.87,3.6,5.74c-0.5,0.18-1,0.35-1.5,0.5c-1.24,0.36-2.46,0.63-3.7,0.78
		c-1.24,0.15-2.51,0.23-3.76,0.17c-0.8-0.03-1.6-0.12-2.38-0.23l0.05-0.07l0.67-1.09c0.82-1.47,1.43-3.02,1.79-4.74
		c0.33-1.71,0.51-3.68-0.35-5.87c-0.26-0.53-0.54-1.08-0.91-1.56c-0.41-0.45-0.82-0.97-1.32-1.29c-0.99-0.74-2.05-1.12-3.03-1.35
		c-0.48-0.08-0.96-0.15-1.44-0.21c-0.53-0.01-1.08-0.02-1.63,0.05c-1.1,0.16-2.2,0.53-3.12,1.13c-1.89,1.18-2.98,2.94-3.65,4.67
		c-0.65,1.76-0.85,3.62-0.56,5.52c0.07,0.47,0.2,0.96,0.34,1.43c0.18,0.46,0.35,0.99,0.58,1.35c0.22,0.4,0.44,0.79,0.68,1.18
		l0.83,1.08c0.26,0.3,0.54,0.58,0.82,0.85c-1.84,1.23-3.8,2.21-5.85,2.83c-2.31,0.71-4.62,0.95-7.2,0.87
		c-2.58-0.06-5.34-0.39-8.32-0.46c-6.09-0.15-12.27,1.39-17.49,4.44c-0.02,0.01-0.04,0.02-0.06,0.03c1.49-4.05,3.69-7.78,6.67-10.88
		c1.77-1.86,3.87-3.67,5.94-5.81c2.07-2.11,4.06-4.74,5.39-7.59c1.37-2.85,2.14-5.92,2.5-8.96c0.08-0.71,0.14-1.42,0.17-2.13
		c1.97-1.17,3.65-2.64,5.11-4.25c2.04-2.23,3.73-4.86,4.93-7.6c1.3-2.96,2.13-6,2.72-9.03c0.31-1.57,0.55-3.13,0.76-4.69
		c0.04,0.01,0.08,0.02,0.12,0.03c0.31,0.08,0.62,0.15,0.93,0.22c0.2,0.04,0.39,0.09,0.59,0.13c0.3,0.06,0.6,0.12,0.9,0.18
		c0.2,0.04,0.4,0.07,0.6,0.1c0.3,0.05,0.6,0.09,0.9,0.13c0.2,0.03,0.39,0.05,0.59,0.07c0.32,0.04,0.64,0.06,0.95,0.09
		c0.17,0.01,0.35,0.03,0.52,0.04c0.4,0.02,0.79,0.03,1.19,0.04c0.09,0,0.19,0.01,0.28,0.01c0.34,0,0.67-0.02,1.01-0.03
		c0.17-0.01,0.34-0.01,0.52-0.02c0.51-0.03,1.01-0.08,1.51-0.15c5.3-0.71,10.3-2.5,14.77-5.59c5.29-3.06,9.09-7.12,11.79-12.63
		c1.91-3.56,3.24-7.25,4.33-10.95c0.01-0.17,0-0.33-0.01-0.47c-0.01-0.05-0.02-0.09-0.03-0.14c-0.01-0.09-0.03-0.18-0.05-0.26
		c-0.02-0.05-0.04-0.09-0.06-0.14c-0.03-0.07-0.05-0.13-0.08-0.19c-0.02-0.04-0.05-0.08-0.08-0.12c-0.03-0.05-0.07-0.1-0.11-0.14
		c-0.03-0.04-0.07-0.06-0.11-0.09c-0.04-0.04-0.08-0.07-0.13-0.1c-0.04-0.03-0.08-0.05-0.13-0.07c-0.05-0.02-0.09-0.05-0.15-0.07
		c-0.05-0.02-0.09-0.03-0.14-0.04c-0.05-0.01-0.11-0.03-0.16-0.04c-0.05-0.01-0.1-0.01-0.15-0.02c-0.06-0.01-0.12-0.01-0.18-0.01
		c-0.03,0-0.07,0-0.1,0c-0.19,0-0.39,0.03-0.59,0.07c-0.02,0.01-0.05,0.01-0.07,0.02c-0.21,0.05-0.41,0.11-0.62,0.2
		c-0.02,0.01-0.03,0.02-0.05,0.02c-0.21,0.09-0.41,0.19-0.61,0.31c-0.01,0.01-0.02,0.01-0.03,0.02c-0.2,0.12-0.39,0.25-0.56,0.4
		c-1.21,0.77-2.07,1.91-3.27,2.56c-0.27,0.15-0.54,0.3-0.82,0.44c-0.09,0.04-0.18,0.08-0.27,0.13c-0.19,0.09-0.38,0.18-0.57,0.26
		c-0.11,0.05-0.22,0.09-0.32,0.13c-0.18,0.07-0.35,0.14-0.53,0.2c-0.11,0.04-0.23,0.08-0.35,0.11c-0.18,0.06-0.35,0.11-0.53,0.16
		c-0.12,0.03-0.24,0.06-0.35,0.09c-0.18,0.04-0.37,0.08-0.55,0.12c-0.12,0.02-0.23,0.05-0.35,0.06c-0.2,0.03-0.4,0.06-0.61,0.08
		c-0.1,0.01-0.2,0.03-0.3,0.03c-0.29,0.02-0.59,0.04-0.89,0.04c-0.01,0-0.02,0-0.03,0c0,0,0,0,0,0c-0.33,0-0.66-0.01-0.99-0.04
		c-2.11-0.09-3.33-1.66-3.48-3.66c0.02-0.59,0.04-1.05,0.07-1.64c0.69-2.55,1.38-4.98,1.84-7.43c1.18-5.81,1.31-11.55-0.45-17.13
		c-1.45-4.63-3.72-9.18-5.76-13.61c-0.12-0.25-0.25-0.5-0.38-0.76c-0.04-0.08-0.09-0.16-0.13-0.24c-0.1-0.18-0.19-0.36-0.29-0.55
		c-0.05-0.1-0.11-0.2-0.17-0.3c-0.1-0.17-0.19-0.34-0.29-0.51c-0.06-0.11-0.13-0.21-0.19-0.32c-0.1-0.17-0.21-0.34-0.31-0.5
		c-0.07-0.1-0.13-0.21-0.2-0.31c-0.11-0.17-0.23-0.35-0.35-0.52c-0.06-0.09-0.13-0.19-0.19-0.28c-0.14-0.2-0.29-0.41-0.44-0.6
		c-0.04-0.06-0.08-0.11-0.13-0.17c-0.19-0.25-0.39-0.5-0.6-0.73c-0.05-0.06-0.1-0.11-0.15-0.17c-0.15-0.17-0.31-0.34-0.46-0.51
		c-0.08-0.08-0.15-0.15-0.23-0.23c-0.14-0.14-0.28-0.27-0.42-0.39c-0.08-0.08-0.17-0.15-0.26-0.22c-0.14-0.11-0.27-0.22-0.41-0.33
		c-0.09-0.07-0.18-0.13-0.27-0.19c-0.14-0.1-0.29-0.18-0.43-0.27c-0.09-0.05-0.17-0.1-0.26-0.15c-0.16-0.08-0.32-0.15-0.48-0.22
		c-0.07-0.03-0.15-0.07-0.22-0.09c-0.24-0.08-0.47-0.15-0.71-0.19c-0.03,0-0.05,0-0.08-0.01c-0.21-0.03-0.42-0.05-0.64-0.05
		c-0.18,0-0.36,0.03-0.54,0.06c-0.09,0.01-0.18,0.02-0.27,0.04c-0.27,0.07-0.54,0.16-0.82,0.29c-0.6,0.33-1.08,0.66-1.45,0.99
		c-0.7,0.7-1.39,1.42-2.06,2.14c-3.34,3.63-6.25,7.56-8.78,11.78c-1.01,1.69-1.96,3.42-2.86,5.2c-0.42,0.8-0.9,2.12-1.39,3.76
		c-0.25,0.82-0.5,1.71-0.75,2.66c-0.37,1.42-0.74,2.97-1.08,4.55c-0.8,3.68-1.44,7.55-1.67,10.51c-0.07,1.67-0.18,2.81-1.04,3.68
		c-0.29,0.29-0.66,0.55-1.14,0.8c0,0,0,0,0,0c-0.19,0.1-0.37,0.17-0.55,0.21c-0.06,0.02-0.12,0.02-0.18,0.03
		c-0.12,0.02-0.24,0.04-0.35,0.04c-0.01,0-0.02,0-0.04,0c-0.13,0-0.27-0.01-0.4-0.04c-0.03-0.01-0.06-0.02-0.1-0.02
		c-0.12-0.02-0.23-0.06-0.35-0.1c-0.04-0.01-0.09-0.03-0.13-0.05c-0.12-0.05-0.24-0.1-0.35-0.16c-0.02-0.01-0.05-0.02-0.07-0.03
		c-0.14-0.07-0.27-0.15-0.41-0.24c-0.04-0.02-0.07-0.05-0.11-0.07c-0.1-0.07-0.2-0.14-0.3-0.21c-0.04-0.03-0.08-0.06-0.12-0.08
		c-0.13-0.09-0.25-0.19-0.37-0.28c-0.11-0.09-0.22-0.17-0.32-0.24c-0.2-0.14-0.39-0.25-0.56-0.39c-0.09-0.07-0.17-0.15-0.26-0.24
		c-0.19-0.15-0.39-0.31-0.59-0.46c-0.06-0.05-0.13-0.1-0.2-0.15c-0.14-0.11-0.29-0.22-0.44-0.34c-0.08-0.06-0.17-0.13-0.25-0.19
		c-0.14-0.1-0.27-0.21-0.41-0.32c-0.09-0.07-0.18-0.14-0.27-0.21c-0.14-0.1-0.28-0.21-0.42-0.31c-0.09-0.07-0.19-0.14-0.28-0.21
		c-0.14-0.1-0.29-0.21-0.43-0.31c-0.09-0.07-0.19-0.13-0.28-0.2c-0.15-0.11-0.31-0.21-0.47-0.32c-0.08-0.06-0.17-0.12-0.25-0.17
		c-0.22-0.15-0.44-0.29-0.66-0.43c-0.02-0.01-0.04-0.03-0.06-0.04c-0.24-0.15-0.48-0.29-0.72-0.43c-0.08-0.04-0.15-0.08-0.22-0.13
		c-0.16-0.09-0.33-0.18-0.49-0.27c-0.09-0.05-0.18-0.09-0.27-0.13c-0.15-0.07-0.29-0.15-0.44-0.21c-0.09-0.04-0.19-0.08-0.28-0.12
		c-0.14-0.06-0.28-0.12-0.42-0.17c-0.09-0.04-0.18-0.07-0.27-0.1c-0.14-0.05-0.27-0.09-0.41-0.13c-0.09-0.03-0.17-0.05-0.26-0.07
		c-0.14-0.04-0.28-0.06-0.42-0.09c-0.07-0.01-0.15-0.03-0.22-0.04c-0.18-0.03-0.35-0.04-0.52-0.04c-0.02,0-0.05-0.01-0.08-0.01
		c-0.13,0-0.26,0.02-0.39,0.03c-0.07,0.01-0.14,0.01-0.2,0.02c-0.18,0.03-0.36,0.09-0.52,0.16c0,0-0.01,0-0.01,0
		c-0.92,0.99-1.31,3.42-1.18,5.71c0.08,1.38,0.34,2.71,0.78,3.65c0.76,2.08,1.64,4.11,2.55,6.13c0.3,0.67,0.61,1.34,0.91,2.01
		c0.57,1.26,1.25,2.55,2.02,3.8c1.28,2.09,2.79,4.09,4.43,5.68c2.08,2.03,4.45,3.74,6.96,5.21c0.41,0.24,0.82,0.47,1.24,0.71
		c0.14,0.08,0.27,0.15,0.41,0.22c0.29,0.16,0.58,0.32,0.87,0.47c0.17,0.09,0.33,0.17,0.5,0.26c0.27,0.14,0.54,0.28,0.82,0.42
		c0.18,0.09,0.36,0.18,0.54,0.27c0.27,0.13,0.55,0.26,0.82,0.39c0.18,0.09,0.37,0.17,0.55,0.25c0.28,0.13,0.57,0.25,0.85,0.38
		c0.18,0.08,0.36,0.16,0.55,0.23c0.31,0.13,0.63,0.26,0.94,0.38c0.16,0.06,0.32,0.13,0.48,0.19c0.32,0.12,0.65,0.24,0.97,0.36
		c0,0,0,0,0,0c-0.3,1.58-0.63,3.13-1.01,4.66c-0.71,2.91-1.6,5.7-2.87,8.27c-0.57,1.15-1.21,2.23-1.94,3.24
		c-0.73,1.02-1.54,2-2.43,2.87c-0.57,0.57-1.17,1.11-1.78,1.6l-0.02-0.1l-0.35-1.23c-0.53-1.6-1.25-3.1-2.26-4.54
		c-1.03-1.4-2.35-2.87-4.54-3.73c-0.57-0.17-1.16-0.33-1.77-0.39c-0.61,0-1.27-0.06-1.84,0.09c-1.21,0.22-2.21,0.74-3.05,1.31
		c-0.39,0.3-0.77,0.6-1.14,0.91c-0.37,0.38-0.75,0.78-1.07,1.23c-0.63,0.91-1.11,1.97-1.29,3.05c-0.42,2.18,0.13,4.18,0.95,5.85
		c0.85,1.67,2.08,3.08,3.67,4.16c0.4,0.27,0.84,0.5,1.28,0.72c0.46,0.18,0.96,0.41,1.39,0.49c0.44,0.11,0.88,0.22,1.32,0.31
		l1.35,0.12c0.4,0.01,0.79,0,1.18-0.03c-0.35,2.19-0.96,4.29-1.9,6.22c-1.05,2.17-2.44,4.04-4.25,5.88c-1.8,1.85-3.91,3.65-5.99,5.8
		c-4.25,4.36-7.31,9.95-8.62,15.85c-0.23,1.03-0.4,2.08-0.53,3.13c-0.08,0-0.18,0-0.25,0c-5.16-0.02-18.22-2.73-22.85-0.1
		c0,0,23.97-13.6,23.97-13.6c3.26-1.53,4.75-5.51,3.33-8.94c-1.51-3.66-5.67-5.2-9.04-3.33c-8.56,4.74-24.26,13.43-36.27,20.16
		c-15.46,8.66-51.58,3.68-84.67,2.43c-1.58-0.06-3.16-0.11-4.72-0.15c0.26-4.47-4.11-7.99-7.49-10.15c1.24,0.13,2.49,0.07,3.71-0.3
		c0.8-0.24,1.57-0.66,2.27-1.19c1.77-1.32,3.11-3.43,3.25-5.9c0.23-4.09-2.66-7.46-3.45-11.45c8.45,7.8,19.93,10.64,30.26,7.5
		c1.84-0.56,3.86-1.54,4.52-3.67c0.98-3.2-1.72-6.2-4.17-7.93c-4.24-3-8.68-5.62-12.79-8.84c-1.77-1.39-3.49-2.88-5.09-4.57
		c-0.72-0.76-1.37-1.45-1.98-2.09c0,0,0,0,0,0c0.26-0.17,0.53-0.33,0.8-0.5c0.15-0.1,0.31-0.21,0.46-0.31
		c0.47-0.31,0.94-0.62,1.41-0.95c0.22-0.15,0.44-0.31,0.67-0.47c0.42-0.29,0.83-0.59,1.24-0.89c0.21-0.16,0.43-0.31,0.64-0.47
		c0.52-0.39,1.03-0.78,1.54-1.18c0.09-0.07,0.19-0.14,0.28-0.22c0.6-0.47,1.19-0.96,1.78-1.45c0.19-0.16,0.37-0.32,0.56-0.48
		c0.42-0.36,0.83-0.72,1.24-1.09c0.2-0.18,0.41-0.37,0.61-0.55c0.43-0.39,0.85-0.79,1.27-1.19c0.16-0.15,0.32-0.3,0.48-0.46
		c0.57-0.55,1.13-1.11,1.69-1.69c0.13-0.14,0.26-0.28,0.39-0.42c0.43-0.45,0.86-0.91,1.28-1.38c0.19-0.21,0.37-0.42,0.56-0.63
		c0.38-0.43,0.76-0.87,1.14-1.31c0.17-0.2,0.35-0.4,0.52-0.61c0.51-0.61,1.01-1.24,1.51-1.87c0.02-0.03,0.05-0.06,0.07-0.09
		c1.11,0.25,2.22,0.46,3.33,0.65c0,0,0.01,0,0.01,0c1.11,0.18,2.22,0.34,3.33,0.46c0.03,0,0.05,0.01,0.08,0.01
		c1.09,0.12,2.18,0.21,3.27,0.27c0.07,0,0.13,0.01,0.2,0.01c1.05,0.05,2.1,0.08,3.15,0.09c0.24,0,0.48,0,0.72-0.01
		c0.95-0.01,1.91-0.04,2.86-0.09c0.37-0.02,0.74-0.04,1.11-0.07c0.54-0.04,1.08-0.08,1.61-0.13c0.72-0.07,1.45-0.16,2.17-0.25
		c0.45-0.06,0.9-0.13,1.35-0.2c0.63-0.1,1.26-0.21,1.89-0.32c0.48-0.09,0.95-0.18,1.43-0.29c0.66-0.14,1.31-0.29,1.96-0.45
		c0.32-0.08,0.65-0.16,0.97-0.24c0.01,0,0.01,0,0.02-0.01l0,0l-7.01,10.96l-8.8,13.76c-2.7,4.22-2.88,9.36-0.47,13.75
		c2.4,4.39,6.83,7.02,11.84,7.02h60.27c5.01,0,9.43-2.62,11.84-7.02c2.4-4.39,2.23-9.54-0.47-13.75L432,409.09
		c-0.08-0.12-0.17-0.22-0.25-0.34c-0.98-1.43-2.19-2.62-3.57-3.56c0.01-0.15,0.02-0.29,0.02-0.44v-4.88v0
		c0.18-0.11,0.37-0.21,0.55-0.33c1.11-0.71,2.22-1.52,3.23-2.42c0.41-0.36,0.8-0.74,1.17-1.13c0.19-0.2,0.37-0.39,0.54-0.6
		c0.46-0.53,0.88-1.08,1.25-1.66c0.78-1.19,1.36-2.49,1.63-3.89c0.12-0.61,0.19-1.22,0.22-1.84c0.01-0.31,0.01-0.62,0-0.92
		c-0.02-0.31-0.04-0.61-0.09-0.91c-0.09-0.6-0.25-1.2-0.47-1.77c-0.23-0.57-0.53-1.12-0.92-1.64c-0.28-0.38-0.59-0.74-0.92-1.09
		c-0.98-1.03-2.13-1.9-3.39-2.55c0.05,0.03,0.11,0.04,0.18,0.05c0.02,0,0.05,0,0.07,0.01c0.05,0.01,0.1,0.01,0.15,0.01
		c0.02,0,0.05,0,0.07,0c0.09,0,0.17-0.01,0.27-0.02c0.03,0,0.06-0.01,0.08-0.01c0.11-0.01,0.22-0.03,0.33-0.04
		c0.02,0,0.04-0.01,0.07-0.01c0.11-0.02,0.21-0.03,0.3-0.05c0.1-0.02,0.19-0.03,0.26-0.04c0.58-0.07,1.15-0.19,1.72-0.33
		c0.06-0.01,0.12-0.02,0.18-0.04c1.37-0.36,2.67-0.91,3.87-1.63c1.2-0.71,2.29-1.58,3.23-2.58c0.31-0.33,0.61-0.68,0.89-1.03
		c0.56-0.72,1.05-1.48,1.46-2.29c0.61-1.21,1.04-2.5,1.25-3.85c0.07-0.45,0.11-0.9,0.13-1.36c0.03-0.92-0.04-1.86-0.23-2.8
		c-0.09-0.47-0.22-0.95-0.37-1.42c-0.76-2.36-2.96-4.23-5.28-5.02c-0.11-0.04-0.22-0.05-0.32-0.09l0,0
		c-0.68-0.2-1.38-0.35-2.09-0.38c0,0,0,0,0,0c-0.06,0-0.13-0.01-0.22-0.01c-0.05,0-0.08,0-0.13-0.01c-0.12,0-0.25-0.01-0.39-0.01
		c-0.01,0-0.01,0-0.02,0c-0.02,0-0.05,0-0.07,0c-0.08,0-0.16,0-0.24,0.01c-0.04,0-0.08,0.01-0.12,0.01
		c-0.07,0.01-0.14,0.01-0.21,0.02c-0.04,0.01-0.08,0.01-0.11,0.02c-0.07,0.01-0.13,0.03-0.18,0.05c-0.03,0.01-0.06,0.02-0.08,0.03
		c-0.08,0.03-0.14,0.07-0.19,0.11c0,0,0,0,0,0c1.28-1.32,2.63-3,3.84-4.72c0.6-0.86,1.17-1.73,1.68-2.56
		c0.51-0.84,0.96-1.64,1.31-2.38c0.32-0.65,0.6-1.32,0.85-2c0.29-0.79,0.52-1.61,0.72-2.43c0.31-1.29,0.51-2.61,0.57-3.93
		c0.09-1.98-0.19-4.14-0.9-6.13c-0.18-0.5-0.38-0.98-0.61-1.45c-0.7-1.41-1.64-2.66-2.86-3.6l0,0c-0.26-0.2-0.51-0.37-0.76-0.52
		c-0.05-0.03-0.09-0.06-0.14-0.09c-0.24-0.14-0.49-0.27-0.73-0.37c-0.05-0.02-0.09-0.04-0.14-0.06c-0.25-0.1-0.5-0.19-0.74-0.26
		c0,0-0.01,0-0.01,0c-0.24-0.06-0.49-0.11-0.73-0.14c-0.04-0.01-0.09-0.01-0.13-0.02c-0.2-0.02-0.39-0.03-0.58-0.03
		c-0.02,0-0.05,0.01-0.07,0.01c-0.33,0-0.66,0.04-0.99,0.1c-0.07,0.01-0.14,0.03-0.22,0.05c-0.26,0.06-0.52,0.13-0.78,0.22
		c-0.09,0.03-0.18,0.06-0.27,0.1c-0.31,0.12-0.62,0.25-0.92,0.41c-0.01,0-0.01,0.01-0.02,0.01c-0.31,0.16-0.62,0.35-0.92,0.55
		c-0.09,0.06-0.17,0.12-0.26,0.17c-0.24,0.17-0.48,0.34-0.71,0.52c-0.07,0.05-0.13,0.1-0.2,0.15c-0.29,0.23-0.57,0.48-0.86,0.73
		c-0.07,0.06-0.13,0.12-0.19,0.18c-0.23,0.21-0.45,0.42-0.67,0.63c-0.08,0.07-0.15,0.15-0.23,0.22c-0.27,0.27-0.53,0.53-0.79,0.81
		c-0.89,0.94-1.79,1.87-2.7,2.8c-1.81,1.83-3.67,3.63-5.58,5.37c-3.18,2.9-6.51,5.65-9.99,8.15c-2.57,1.85-5.24,3.57-7.95,5.21
		c-1.36,0.82-2.73,1.62-4.1,2.41c-1.38,0.79-2.76,1.56-4.14,2.33c0,0,0,0-0.01,0c-0.6,0.34-1.22,0.66-1.85,0.97
		c-0.18,0.09-0.36,0.17-0.54,0.26c-0.47,0.23-0.95,0.45-1.43,0.65c-0.2,0.09-0.4,0.17-0.6,0.25c-0.5,0.2-1,0.4-1.51,0.58
		c-0.17,0.06-0.34,0.12-0.51,0.18c-0.68,0.23-1.36,0.43-2.05,0.61c0.03-1.08,0.05-2.14,0.07-3.2c0.01-0.41,0.01-0.81,0.02-1.22
		c0.01-0.65,0.02-1.31,0.02-1.96c0-0.46,0-0.91,0-1.37c0-0.58,0-1.16,0-1.74c0-0.47-0.01-0.93-0.01-1.4
		c-0.01-0.55-0.01-1.09-0.02-1.63c-0.01-0.47-0.02-0.93-0.03-1.39c-0.01-0.53-0.02-1.05-0.04-1.57c-0.01-0.46-0.03-0.91-0.04-1.37
		c-0.02-0.51-0.03-1.02-0.05-1.52c-0.02-0.45-0.03-0.9-0.05-1.34c-0.02-0.5-0.05-0.99-0.07-1.49c-0.02-0.43-0.04-0.86-0.07-1.29
		c-0.03-0.5-0.06-0.99-0.09-1.49c-0.03-0.41-0.05-0.82-0.08-1.22c-0.04-0.52-0.07-1.03-0.11-1.54c-0.03-0.36-0.05-0.73-0.08-1.09
		c-0.06-0.76-0.13-1.52-0.19-2.26c-0.03-0.35-0.07-0.7-0.1-1.05c-0.05-0.57-0.11-1.13-0.17-1.69c-0.04-0.36-0.08-0.7-0.12-1.05
		c-0.05-0.46-0.1-0.92-0.15-1.37c-0.04-0.37-0.09-0.73-0.13-1.1c-0.05-0.42-0.1-0.84-0.16-1.26c-0.05-0.37-0.1-0.73-0.15-1.1
		c-0.05-0.4-0.11-0.8-0.17-1.2c-0.05-0.36-0.1-0.72-0.16-1.08c-0.06-0.39-0.12-0.77-0.18-1.16c-0.05-0.35-0.11-0.7-0.17-1.04
		c-0.06-0.38-0.12-0.76-0.19-1.13c-0.06-0.34-0.11-0.67-0.17-1c-0.07-0.37-0.13-0.74-0.2-1.1c-0.06-0.32-0.12-0.65-0.18-0.97
		c-0.07-0.37-0.14-0.73-0.21-1.09c-0.06-0.31-0.12-0.62-0.18-0.92c-0.08-0.4-0.16-0.79-0.25-1.18c-0.05-0.25-0.11-0.51-0.16-0.75
		c-0.13-0.62-0.27-1.23-0.41-1.83c-0.06-0.26-0.12-0.51-0.18-0.76c-0.08-0.35-0.17-0.71-0.25-1.06c-0.07-0.28-0.14-0.54-0.21-0.81
		c-0.08-0.32-0.16-0.63-0.24-0.94c-0.07-0.27-0.14-0.54-0.22-0.81c-0.08-0.3-0.16-0.59-0.24-0.88c-0.07-0.27-0.15-0.53-0.22-0.8
		c-0.08-0.28-0.16-0.56-0.24-0.84c-0.08-0.26-0.15-0.52-0.23-0.78c-0.08-0.27-0.16-0.54-0.24-0.8c-0.08-0.25-0.16-0.51-0.24-0.76
		c-0.08-0.26-0.16-0.51-0.24-0.76c-0.08-0.24-0.16-0.49-0.24-0.73c-0.08-0.26-0.17-0.51-0.26-0.76c-0.08-0.23-0.15-0.45-0.23-0.68
		c-0.09-0.26-0.18-0.51-0.27-0.76c-0.07-0.21-0.15-0.42-0.22-0.62c-0.11-0.3-0.22-0.59-0.33-0.89c-0.09-0.24-0.18-0.48-0.27-0.72
		c-0.12-0.32-0.25-0.64-0.37-0.95c-0.08-0.19-0.15-0.37-0.23-0.56c-0.09-0.22-0.18-0.45-0.27-0.67c-0.08-0.19-0.16-0.37-0.24-0.56
		c-0.09-0.2-0.17-0.41-0.26-0.61c-0.08-0.19-0.16-0.37-0.24-0.55c-0.08-0.19-0.17-0.38-0.25-0.57c-0.08-0.18-0.16-0.35-0.24-0.53
		c-0.08-0.18-0.17-0.36-0.25-0.54c-0.08-0.17-0.16-0.34-0.24-0.51c-0.08-0.17-0.17-0.34-0.25-0.51c-0.08-0.16-0.16-0.32-0.23-0.47
		c-0.08-0.17-0.17-0.33-0.25-0.5c-0.08-0.15-0.15-0.3-0.23-0.44c-0.08-0.16-0.17-0.32-0.25-0.48c-0.07-0.14-0.15-0.28-0.22-0.41
		c-0.09-0.17-0.18-0.32-0.26-0.49c-0.07-0.12-0.13-0.24-0.2-0.36c-0.13-0.22-0.25-0.44-0.37-0.65c-0.08-0.15-0.17-0.29-0.25-0.43
		c-0.09-0.15-0.17-0.3-0.26-0.44c-0.07-0.11-0.13-0.22-0.2-0.32c-0.08-0.13-0.16-0.26-0.24-0.39c-0.07-0.11-0.13-0.21-0.2-0.31
		c-0.07-0.12-0.15-0.24-0.22-0.35c-0.07-0.1-0.13-0.2-0.19-0.3c-0.07-0.11-0.14-0.21-0.21-0.32c-0.06-0.1-0.13-0.19-0.19-0.29
		c-0.07-0.1-0.13-0.2-0.2-0.29c-0.06-0.09-0.12-0.18-0.18-0.26c-0.06-0.09-0.13-0.18-0.19-0.27c-0.06-0.08-0.12-0.17-0.18-0.25
		c-0.06-0.08-0.12-0.17-0.18-0.25c-0.05-0.07-0.11-0.15-0.16-0.22c-0.06-0.08-0.12-0.16-0.18-0.24c-0.05-0.06-0.1-0.13-0.14-0.19
		c-0.06-0.08-0.12-0.16-0.18-0.23c-0.04-0.05-0.08-0.11-0.12-0.16c-0.09-0.12-0.18-0.23-0.27-0.34c-0.04-0.05-0.08-0.09-0.12-0.14
		c-0.05-0.06-0.1-0.12-0.14-0.17c-0.04-0.05-0.08-0.09-0.11-0.13c-0.04-0.05-0.08-0.1-0.12-0.14c-0.04-0.04-0.07-0.08-0.1-0.12
		c-0.04-0.04-0.07-0.08-0.11-0.12c-0.03-0.04-0.06-0.07-0.09-0.1c-0.03-0.03-0.06-0.07-0.09-0.1c-0.03-0.03-0.05-0.06-0.08-0.09
		c-0.03-0.03-0.05-0.06-0.08-0.08c-0.02-0.02-0.04-0.04-0.06-0.07c-0.02-0.02-0.04-0.05-0.06-0.07c-0.02-0.02-0.03-0.03-0.05-0.05
		c-0.02-0.02-0.03-0.03-0.05-0.05c-0.01-0.01-0.02-0.02-0.03-0.03c-0.01-0.01-0.02-0.02-0.02-0.02c-0.02-0.02-0.04-0.04-0.04-0.04
		c4.34-2.93,7.31-8.08,9.34-13.37c0.17-0.44,0.33-0.88,0.49-1.32c0.19-0.55,0.37-1.09,0.55-1.64c0.22-0.67,0.42-1.34,0.61-2.01
		c0.06-0.21,0.12-0.42,0.18-0.64c1.84-6.72,2.3-12.42,2.3-12.42h0l0,0c-6.31,1.26-12.84,2.8-18.96,4.35
		c-4.08,1.04-7.98,2.08-11.52,3.06c-1.18,0.33-2.32,0.64-3.41,0.95c-8.19,2.31-13.71,4.05-13.71,4.05
		c-2.07-0.04-4.11-0.06-6.13-0.07c-0.52,0-1.04-0.01-1.56-0.01c-0.52,0-1.04-0.01-1.55-0.01c-0.68,0-1.34,0.01-2.02,0.01
		c-1.35,0-2.69,0.01-4.03,0.02c-1.02,0.01-2.04,0.02-3.06,0.04c-1.33,0.02-2.66,0.04-3.98,0.06c-1,0.02-2.01,0.04-3,0.06
		c-1.36,0.03-2.71,0.06-4.05,0.09c-0.98,0.02-1.97,0.05-2.94,0.07c-1.59,0.04-3.18,0.08-4.77,0.13c-1.65,0.04-3.29,0.09-4.93,0.13
		c-1.11,0.03-2.22,0.06-3.33,0.09c-1.63,0.04-3.26,0.08-4.89,0.11c-0.65,0.01-1.3,0.03-1.96,0.04c-2.25,0.05-4.51,0.08-6.78,0.11
		c-0.5,0.01-1.01,0.01-1.51,0.01c-1.76,0.02-3.52,0.03-5.29,0.03c-1.9,0-3.8-0.01-5.72-0.03c-0.43,0-0.86-0.01-1.28-0.02
		c-1.57-0.02-3.14-0.05-4.72-0.09c-0.59-0.01-1.19-0.03-1.79-0.05c-1.69-0.05-3.39-0.11-5.1-0.18c-0.34-0.01-0.67-0.02-1.01-0.04
		c-2.01-0.09-4.05-0.2-6.1-0.33c-0.54-0.03-1.09-0.07-1.64-0.11c-1.59-0.11-3.19-0.23-4.8-0.36c-0.61-0.05-1.23-0.1-1.85-0.15
		c-2.12-0.19-4.26-0.39-6.43-0.62c-0.01,0-0.01,0-0.02,0c-0.02-0.01-0.05-0.01-0.07-0.02c-0.8-0.24-1.59-0.47-2.37-0.68
		c-0.28-0.08-0.55-0.15-0.82-0.22c-0.52-0.14-1.03-0.28-1.53-0.42c-0.31-0.08-0.62-0.16-0.93-0.24c-0.45-0.11-0.9-0.23-1.34-0.34
		c-0.32-0.08-0.63-0.15-0.95-0.23c-0.42-0.1-0.83-0.2-1.24-0.29c-0.32-0.07-0.62-0.14-0.93-0.21c-0.39-0.09-0.78-0.17-1.17-0.25
		c-0.31-0.07-0.62-0.13-0.92-0.19c-0.37-0.07-0.74-0.15-1.1-0.22c-0.3-0.06-0.59-0.11-0.89-0.17c-0.36-0.07-0.71-0.13-1.05-0.19
		c-0.28-0.05-0.56-0.1-0.84-0.14c-0.34-0.06-0.68-0.11-1.02-0.16c-0.27-0.04-0.54-0.08-0.8-0.12c-0.33-0.05-0.66-0.09-0.98-0.14
		c-0.25-0.03-0.5-0.07-0.74-0.1c-0.33-0.04-0.65-0.08-0.97-0.12c-0.23-0.03-0.46-0.06-0.68-0.08c-0.33-0.04-0.64-0.07-0.96-0.1
		c-0.2-0.02-0.4-0.04-0.6-0.06c-0.35-0.03-0.68-0.06-1.02-0.09c-0.15-0.01-0.31-0.03-0.46-0.04c-0.96-0.07-1.87-0.12-2.72-0.16
		c-0.14-0.01-0.27-0.01-0.41-0.01c-0.28-0.01-0.56-0.02-0.83-0.02c-0.16,0-0.3,0-0.46-0.01c-0.24,0-0.47-0.01-0.7-0.01
		c-0.04,0-0.08,0-0.11,0c-0.16,0-0.32,0-0.47,0c-0.13,0-0.27,0-0.4,0c-0.21,0-0.42,0.01-0.62,0.01c-0.1,0-0.21,0-0.3,0.01
		c-0.27,0.01-0.53,0.02-0.78,0.03c-0.06,0-0.11,0.01-0.17,0.01c-0.24,0.01-0.48,0.03-0.71,0.04c-0.09,0.01-0.17,0.01-0.26,0.02
		c-0.16,0.01-0.32,0.02-0.47,0.04c-0.1,0.01-0.19,0.02-0.28,0.03c-0.13,0.01-0.26,0.02-0.38,0.04c-0.09,0.01-0.18,0.02-0.27,0.03
		c-0.11,0.01-0.22,0.02-0.33,0.04c-0.09,0.01-0.16,0.02-0.25,0.03c-0.1,0.01-0.19,0.02-0.28,0.04c-0.08,0.01-0.15,0.02-0.22,0.03
		c-0.08,0.01-0.16,0.02-0.24,0.04c-0.06,0.01-0.13,0.02-0.18,0.03c-0.07,0.01-0.14,0.02-0.21,0.04c-0.06,0.01-0.11,0.02-0.16,0.03
		c-0.06,0.01-0.11,0.02-0.16,0.03c-0.05,0.01-0.09,0.02-0.13,0.03c-0.05,0.01-0.09,0.02-0.13,0.03c-0.04,0.01-0.07,0.01-0.1,0.02
		c-0.03,0.01-0.06,0.01-0.08,0.02c-0.03,0.01-0.06,0.01-0.08,0.02c-0.01,0-0.02,0-0.02,0.01c-0.06,0.01-0.1,0.02-0.1,0.02v0l0,0
		c0.06,0.51,0.13,1.01,0.21,1.5c0.59,3.46,1.75,6.58,3.21,9.33c0.42,0.79,0.86,1.54,1.31,2.27c0.46,0.73,0.93,1.42,1.41,2.09
		c4.83,6.67,10.65,10.26,10.65,10.26s-0.03,0.03-0.07,0.07c0,0,0,0,0,0c-0.04,0.04-0.1,0.11-0.19,0.2
		c-0.01,0.01-0.01,0.02-0.02,0.03c-0.26,0.28-0.7,0.78-1.28,1.49c0,0.01-0.01,0.01-0.01,0.01c-0.19,0.24-0.4,0.5-0.63,0.79
		c0,0-0.01,0.01-0.01,0.01c-5.9,7.6-21.51,32.4-20.47,80.69c-0.66-0.28-1.31-0.59-1.96-0.9c-0.01,0-0.02-0.01-0.03-0.01
		c-0.65-0.32-1.28-0.65-1.9-1c-1.24-0.69-2.48-1.39-3.72-2.1h0c-2.57-1.47-5.11-2.98-7.6-4.58l-25.69-95.38
		c-0.84-3.09-3.65-5.25-6.85-5.25c-0.53,0-1.07,0.06-1.59,0.18c-3.81,0.87-6.2,4.69-5.33,8.5l16.68,72.72
		c-0.12-0.12-0.24-0.25-0.36-0.37c-2.31-2.44-5.04-4.81-8.02-4.85c-0.02,0-0.05-0.01-0.07-0.01c-0.19,0-0.39,0.01-0.58,0.03
		c-0.04,0-0.09,0.01-0.13,0.02c-0.24,0.03-0.49,0.07-0.73,0.14c0,0-0.01,0-0.01,0c-0.25,0.07-0.5,0.16-0.74,0.26
		c-0.05,0.02-0.09,0.04-0.14,0.06c-0.24,0.11-0.48,0.23-0.73,0.37c-0.05,0.03-0.09,0.06-0.14,0.08c-0.25,0.16-0.51,0.33-0.77,0.52
		c-1.63,1.26-2.76,3.06-3.47,5.05c-0.53,1.49-0.82,3.08-0.9,4.62c-0.02,0.51-0.03,1.02,0,1.51c0.03,0.72,0.1,1.44,0.21,2.16
		c0.21,1.43,0.58,2.84,1.08,4.2c0.25,0.68,0.53,1.35,0.85,2c0.36,0.73,0.81,1.54,1.31,2.38c0.51,0.84,1.08,1.71,1.68,2.56
		c1.21,1.72,2.56,3.4,3.84,4.72c0,0,0,0,0,0c-0.05-0.05-0.11-0.08-0.19-0.11c-0.03-0.01-0.06-0.02-0.08-0.03
		c-0.06-0.02-0.12-0.03-0.18-0.05c-0.04-0.01-0.07-0.01-0.11-0.02c-0.07-0.01-0.14-0.02-0.21-0.02c-0.04,0-0.08-0.01-0.12-0.01
		c-0.08,0-0.16-0.01-0.24-0.01c-0.02,0-0.05,0-0.07,0c-0.01,0-0.01,0-0.02,0c-0.14,0-0.27,0-0.39,0.01c-0.05,0-0.09,0-0.13,0.01
		c-0.09,0-0.16,0.01-0.22,0.01c-0.62,0.03-1.22,0.15-1.82,0.31c-0.2,0.05-0.4,0.09-0.6,0.16c-0.29,0.1-0.58,0.21-0.86,0.34
		c-0.57,0.26-1.11,0.59-1.63,0.97c-0.26,0.19-0.5,0.39-0.73,0.61c-0.01,0.01-0.01,0.01-0.02,0.02c-0.4,0.38-0.76,0.79-1.08,1.24
		c-0.41,0.57-0.74,1.19-0.96,1.84c-0.77,2.38-0.78,4.74-0.19,6.92c0.12,0.44,0.26,0.87,0.42,1.29c0.73,1.89,1.91,3.59,3.39,5.02
		c0.5,0.48,1.02,0.94,1.58,1.35c0.75,0.54,1.55,1.02,2.39,1.42c0.84,0.4,1.73,0.73,2.64,0.97c0.62,0.16,1.26,0.29,1.9,0.37l0,0
		c0.07,0.01,0.16,0.02,0.26,0.04c0.09,0.02,0.19,0.03,0.3,0.05c0.02,0,0.04,0.01,0.06,0.01c0.11,0.02,0.22,0.03,0.33,0.04
		c0.03,0,0.05,0.01,0.08,0.01c0.09,0.01,0.18,0.01,0.27,0.02c0.02,0,0.04,0,0.05,0c0.01,0,0.01,0,0.02,0c0.05,0,0.1-0.01,0.15-0.01
		c0.02,0,0.05,0,0.07-0.01c0.07-0.01,0.13-0.03,0.18-0.05c0,0,0,0,0,0c-0.84,0.43-1.64,0.96-2.36,1.58
		c-0.36,0.31-0.71,0.63-1.03,0.98c-0.25,0.26-0.47,0.54-0.69,0.82v0c-0.07,0.09-0.15,0.17-0.22,0.26c-0.39,0.52-0.69,1.07-0.92,1.64
		c-0.23,0.57-0.38,1.17-0.47,1.77c-0.05,0.3-0.08,0.61-0.09,0.91c-0.02,0.31-0.02,0.61,0,0.92c0.02,0.62,0.1,1.23,0.22,1.84
		c0.3,1.56,0.98,2.99,1.89,4.29c0.91,1.3,2.07,2.47,3.32,3.51c0.84,0.69,1.72,1.32,2.61,1.89c0.74,0.47,1.51,0.89,2.29,1.29
		c2.04,1.03,4.21,1.82,6.41,2.5c0.51,0.16,1.02,0.31,1.53,0.46c0.51,0.15,1.02,0.3,1.53,0.44c-2.5,1.7-3.59,4.78-3.43,7.84
		c0.01,0.28,0.04,0.56,0.07,0.83c0.14,1.11,0.44,2.19,0.89,3.19c1.14,2.5,3,4.54,5.17,6.26c1.3,1.03,2.7,1.95,4.12,2.79
		c0.87,0.51,1.76,1,2.66,1.47c0.18,0.09,0.35,0.19,0.53,0.28c0.86,0.44,1.73,0.85,2.61,1.25c0.2,0.09,0.4,0.17,0.59,0.26
		c0.83,0.36,1.66,0.7,2.5,1.03c0.13,0.05,0.27,0.11,0.4,0.16c0.85,0.32,1.71,0.61,2.57,0.89c0.29,0.09,0.57,0.19,0.86,0.27
		c0.83,0.26,1.67,0.5,2.52,0.72c0.34,0.09,0.68,0.17,1.02,0.25c0.63,0.15,1.25,0.3,1.88,0.43c0.52,0.11,1.03,0.21,1.55,0.31
		c0.59,0.11,1.19,0.21,1.79,0.31c0.46,0.07,0.93,0.14,1.39,0.2c0.65,0.09,1.31,0.16,1.96,0.23c0.61,0.06,1.21,0.11,1.82,0.16
		c0.36,0.03,0.72,0.05,1.07,0.07c0.96,0.05,1.92,0.08,2.88,0.09c0.26,0,0.51,0.01,0.77,0.01c0.65,0,1.3-0.01,1.95-0.03
		c0.14,0,0.28-0.01,0.41-0.02c1.26-0.05,2.52-0.14,3.77-0.27c0.16-0.02,0.31-0.03,0.47-0.05c0.68-0.07,1.37-0.16,2.05-0.26
		c1.39,1.9,2.84,3.7,4.34,5.39c0.13,0.15,0.26,0.29,0.39,0.44c0.43,0.48,0.86,0.94,1.29,1.4c0.14,0.15,0.28,0.3,0.42,0.44
		c0.45,0.47,0.9,0.93,1.35,1.38c0.08,0.08,0.15,0.15,0.23,0.22c1.53,1.5,3.1,2.92,4.71,4.25c0.09,0.08,0.18,0.15,0.27,0.23
		c0.48,0.39,0.97,0.78,1.45,1.16c0.15,0.11,0.29,0.23,0.44,0.34c0.48,0.37,0.97,0.73,1.45,1.09c0.13,0.09,0.25,0.18,0.38,0.27
		c1.89,1.36,3.81,2.62,5.75,3.77c-2.42,2.39-5.04,4.41-7.74,6.28c-3.03,2.1-6.16,4.04-9.18,6.17c-2.45,1.73-5.15,4.73-4.17,7.93
		c0.66,2.13,2.68,3.12,4.51,3.67c10.33,3.14,21.81,0.3,30.26-7.5c-0.8,3.99-3.69,7.36-3.45,11.45c0.16,2.77,1.83,5.09,3.92,6.35
		c0.52,0.31,1.05,0.57,1.61,0.74c1.74,0.53,3.56,0.45,5.33,0.04c-3.05,1.88-7.13,4.96-7.83,8.88c-1.53,0.02-3.12,0.06-4.78,0.12
		c-3.86,0.13-8.1,0.37-12.92,0.82c-14.35,1.34-30.84,1.26-47.05-1.12c-0.58-1.46-1.26-2.89-2.03-4.25
		c-2.98-5.26-7.55-9.7-12.89-12.63c-2.61-1.44-5.16-2.55-7.42-3.79c-2.27-1.23-4.15-2.6-5.79-4.38c-1.46-1.57-2.66-3.4-3.64-5.39
		c0.38-0.09,0.76-0.19,1.14-0.32l1.26-0.51c0.4-0.21,0.79-0.45,1.18-0.68c0.38-0.2,0.79-0.56,1.18-0.87
		c0.36-0.34,0.71-0.69,1.02-1.06c1.2-1.5,1.97-3.21,2.29-5.06c0.29-1.84,0.23-3.91-0.81-5.87c-0.49-0.98-1.26-1.85-2.13-2.54
		c-0.43-0.34-0.92-0.6-1.38-0.86c-0.45-0.19-0.9-0.37-1.36-0.54c-0.97-0.3-2.08-0.5-3.3-0.36c-0.59,0.02-1.2,0.27-1.79,0.45
		c-0.56,0.23-1.08,0.57-1.57,0.89c-1.85,1.46-2.68,3.25-3.25,4.9c-0.55,1.67-0.8,3.32-0.84,5l0.03,1.28l0.01,0.11
		c-0.73-0.29-1.46-0.63-2.17-1.01c-1.11-0.58-2.16-1.28-3.16-2.03c-0.99-0.75-1.92-1.6-2.81-2.53c-1.97-2.08-3.63-4.49-5.16-7.06
		c-0.81-1.35-1.58-2.75-2.33-4.17c2.9-2.17,5.55-4.66,7.82-7.13c1.97-2.14,3.73-4.47,5.13-7.02c0.88-1.6,1.61-3.43,2.18-5.31
		c0.28-0.94,0.53-1.9,0.73-2.84c0.2-0.95,0.36-1.89,0.48-2.8c0.19-1.46,0.38-2.93,0.55-4.39c0.17-1.47,0.3-2.93,0.38-4.41
		c0.4-2.75-1.25-7.76-3.12-8.84c-0.14-0.01-0.28-0.01-0.42,0c-0.09,0.01-0.18,0.01-0.27,0.03c-0.1,0.02-0.2,0.04-0.3,0.06
		c-0.09,0.02-0.18,0.05-0.27,0.08c-0.1,0.04-0.21,0.08-0.31,0.12c-0.09,0.04-0.18,0.08-0.27,0.13c-0.1,0.05-0.21,0.11-0.32,0.18
		c-0.09,0.05-0.18,0.11-0.28,0.17c-0.11,0.07-0.22,0.15-0.32,0.22c-0.09,0.07-0.18,0.13-0.27,0.2c-0.11,0.08-0.22,0.18-0.33,0.27
		c-0.09,0.08-0.18,0.15-0.27,0.23c-0.11,0.1-0.22,0.2-0.33,0.3c-0.09,0.09-0.18,0.17-0.27,0.26c-0.11,0.11-0.22,0.22-0.33,0.34
		c-0.09,0.09-0.18,0.18-0.26,0.28c-0.11,0.12-0.22,0.24-0.33,0.37c-0.09,0.1-0.17,0.19-0.26,0.29c-0.11,0.13-0.22,0.26-0.33,0.39
		c-0.08,0.1-0.16,0.19-0.24,0.29c-0.11,0.14-0.22,0.28-0.33,0.41c-0.08,0.1-0.16,0.2-0.24,0.3c-0.11,0.14-0.22,0.29-0.33,0.43
		c-0.07,0.1-0.15,0.19-0.22,0.29c-0.12,0.15-0.23,0.31-0.34,0.46c-0.06,0.09-0.13,0.17-0.19,0.26c-0.12,0.16-0.23,0.32-0.35,0.48
		c-0.05,0.08-0.11,0.15-0.16,0.23c-0.13,0.18-0.26,0.36-0.38,0.54c-0.03,0.05-0.07,0.1-0.1,0.14c-0.16,0.23-0.31,0.45-0.46,0.66
		c-0.21,0.45-0.51,0.67-0.83,1.16c-0.1,0.14-0.2,0.27-0.3,0.41c-0.03,0.04-0.07,0.08-0.1,0.13c-0.07,0.09-0.14,0.18-0.22,0.27
		c-0.04,0.05-0.08,0.1-0.13,0.14c-0.07,0.08-0.14,0.16-0.21,0.23c-0.05,0.05-0.1,0.09-0.15,0.14c-0.07,0.07-0.14,0.13-0.22,0.19
		c-0.05,0.04-0.11,0.08-0.16,0.12c-0.08,0.05-0.16,0.1-0.24,0.15c-0.06,0.03-0.12,0.07-0.18,0.09c-0.09,0.04-0.17,0.07-0.27,0.1
		c-0.06,0.02-0.12,0.04-0.19,0.06c-0.1,0.02-0.21,0.04-0.31,0.05c-0.06,0.01-0.12,0.02-0.18,0.02c-0.01,0-0.03,0-0.04,0
		c-0.16,0-0.32-0.02-0.49-0.05l0,0c-0.53-0.09-0.96-0.24-1.32-0.43c-0.54-0.29-0.92-0.7-1.24-1.24c-0.32-0.53-0.56-1.19-0.84-1.98
		c-1.4-3.56-3.89-8.34-6.26-12.3c-1.84-3.08-3.6-5.67-4.71-6.8c-5.51-5.76-11.67-10.54-18.7-14.27c-0.45-0.21-1.01-0.39-1.67-0.53
		c-0.26-0.04-0.5-0.05-0.74-0.04c-0.12,0-0.23,0.02-0.35,0.04c-0.14,0.02-0.28,0.03-0.42,0.07c-0.11,0.03-0.22,0.07-0.33,0.1
		c-0.13,0.04-0.26,0.09-0.39,0.15c-0.1,0.05-0.2,0.11-0.3,0.16c-0.12,0.07-0.24,0.14-0.36,0.22c-0.1,0.07-0.19,0.14-0.28,0.22
		c-0.11,0.09-0.22,0.19-0.33,0.29c-0.09,0.08-0.17,0.17-0.26,0.27c-0.1,0.11-0.2,0.23-0.3,0.35c-0.08,0.1-0.16,0.2-0.24,0.31
		c-0.1,0.13-0.19,0.26-0.28,0.4c-0.07,0.11-0.14,0.22-0.21,0.34c-0.09,0.15-0.17,0.3-0.25,0.45c-0.07,0.12-0.13,0.24-0.19,0.37
		c-0.08,0.16-0.16,0.32-0.23,0.49c-0.06,0.13-0.12,0.26-0.17,0.39c-0.07,0.17-0.14,0.34-0.21,0.52c-0.05,0.13-0.1,0.26-0.15,0.4
		c-0.07,0.18-0.13,0.36-0.19,0.54c-0.05,0.13-0.09,0.27-0.14,0.4c-0.06,0.19-0.11,0.37-0.17,0.56c-0.04,0.13-0.08,0.27-0.12,0.4
		c-0.05,0.19-0.1,0.38-0.15,0.57c-0.03,0.13-0.07,0.26-0.1,0.39c-0.05,0.2-0.09,0.39-0.13,0.59c-0.03,0.12-0.06,0.24-0.08,0.35
		c-0.04,0.21-0.08,0.42-0.12,0.62c-0.02,0.1-0.04,0.2-0.06,0.29c-0.05,0.3-0.1,0.59-0.15,0.87c-0.66,4.83-1.5,9.84-1.52,14.7
		c-0.04,5.85,1.75,11.31,4.59,16.52c0.29,0.55,0.59,1.1,0.9,1.64c0.62,1.09,1.29,2.17,1.98,3.26c0.34,0.55,0.69,1.1,1.05,1.66
		c0.2,0.55,0.35,0.99,0.55,1.55c0.44,1.95-0.27,3.82-2.25,4.52c-0.34,0.14-0.68,0.25-1.03,0.36c-0.11,0.03-0.22,0.06-0.34,0.09
		c-0.23,0.06-0.47,0.12-0.7,0.17c-0.13,0.03-0.26,0.05-0.4,0.07c-0.22,0.04-0.44,0.07-0.66,0.09c-0.14,0.01-0.27,0.03-0.41,0.04
		c-0.22,0.02-0.44,0.02-0.66,0.03c-0.08,0-0.17,0.01-0.25,0.01c-0.04,0-0.07-0.01-0.11-0.01c-0.47,0-0.93-0.03-1.4-0.08
		c-0.09-0.01-0.18-0.02-0.27-0.03c-0.48-0.06-0.96-0.14-1.45-0.25c-0.67-0.14-1.29-0.41-1.92-0.7c-0.63-0.29-1.27-0.59-1.95-0.78
		c-0.26-0.11-0.55-0.2-0.84-0.26c-0.02-0.01-0.05-0.01-0.07-0.01c-0.29-0.06-0.58-0.09-0.87-0.09c-0.01,0-0.02,0-0.03,0
		c-0.15,0-0.3,0.01-0.45,0.03c-0.04,0-0.08,0.01-0.12,0.02c-0.11,0.02-0.22,0.04-0.32,0.07c-0.04,0.01-0.07,0.02-0.11,0.03
		c-0.13,0.04-0.25,0.09-0.37,0.15c-0.02,0.01-0.03,0.02-0.04,0.03c-0.1,0.06-0.18,0.12-0.26,0.19c-0.03,0.02-0.05,0.05-0.08,0.08
		c-0.07,0.07-0.13,0.15-0.18,0.24c-0.01,0.02-0.03,0.04-0.04,0.07c-0.05,0.11-0.09,0.24-0.12,0.37c-0.01,0.03-0.01,0.07-0.01,0.1
		c-0.01,0.11-0.01,0.23,0,0.36c0,0.05,0.01,0.09,0.02,0.14c0.03,0.17,0.07,0.35,0.14,0.55c2.13,3.22,4.48,6.36,7.35,9.21
		c4.19,4.48,9.02,7.25,14.97,8.63c0.74,0.24,1.49,0.44,2.23,0.62c0.23,0.06,0.47,0.1,0.7,0.15c0.52,0.11,1.05,0.22,1.57,0.3
		c0.26,0.04,0.52,0.08,0.78,0.12c0.53,0.07,1.06,0.13,1.59,0.18c0.23,0.02,0.46,0.05,0.69,0.06c0.75,0.05,1.51,0.08,2.26,0.08
		c0.59,0,1.18-0.02,1.78-0.05c0.17-0.01,0.35-0.02,0.52-0.03c0.44-0.03,0.89-0.07,1.33-0.11c0.17-0.02,0.35-0.03,0.52-0.05
		c0.59-0.07,1.19-0.15,1.78-0.25c3.42-0.57,6.76-2,9.88-3.91c0.66,1.43,1.35,2.85,2.1,4.26c1.46,2.73,3.14,5.38,5.25,7.84
		c1.95,2.26,4.33,4.28,6.94,5.82c1.86,1.11,3.9,2.02,6.13,2.56c0.24,0.67,0.5,1.33,0.79,1.99c1.23,2.8,2.87,5.52,5.01,7.84
		c2.11,2.33,4.78,4.26,7.38,5.67c2.6,1.43,5.14,2.55,7.38,3.81c4.32,2.41,7.9,5.9,10.69,10.02c-4.41-0.85-8.76-1.89-13.02-3.12
		c-14.59-4.25-28.03-10.88-38.28-20.63c-4.74-4.51-14.87-0.96-16.29,6c-0.92,4.53,3.41,8.23,6.14,11.05
		c3.51,3.64,8.46,9.37,13.45,13.22c-4.17-1.66-8.72-2.48-13.21-2.36c-2.98,0.07-5.74,0.39-8.32,0.46c-2.58,0.08-4.9-0.16-7.2-0.87
		c-2.05-0.62-4.01-1.6-5.85-2.83c0.28-0.27,0.56-0.55,0.82-0.85l0.83-1.08c0.24-0.38,0.46-0.78,0.68-1.18
		c0.23-0.36,0.4-0.89,0.58-1.35c0.14-0.47,0.27-0.95,0.34-1.43c0.28-1.9,0.09-3.76-0.56-5.52c-0.67-1.73-1.76-3.49-3.65-4.67
		c-0.92-0.6-2.02-0.97-3.12-1.13c-0.54-0.07-1.1-0.06-1.63-0.05c-0.48,0.06-0.96,0.13-1.44,0.21c-0.99,0.23-2.05,0.61-3.03,1.35
		c-0.5,0.32-0.9,0.84-1.32,1.29c-0.37,0.48-0.65,1.03-0.91,1.56c-0.86,2.19-0.68,4.16-0.35,5.87c0.37,1.72,0.97,3.27,1.79,4.74
		l0.67,1.09l0.05,0.07c-0.78,0.12-1.57,0.2-2.38,0.23c-1.25,0.06-2.51-0.02-3.76-0.17c-1.24-0.15-2.46-0.42-3.7-0.78
		c-0.51-0.15-1.01-0.32-1.5-0.5c1.38-1.87,2.59-3.83,3.6-5.74c1.05-1.97,1.91-4.05,2.45-6.21c0.69-2.73,0.76-6,0.4-8.81
		c-0.28-2.25-0.56-4.5-1.01-6.73c-0.24-2.12-2.43-5.53-4.03-5.97c-2.27,0.34-4.01,4.99-5.12,8.02c-0.07,0.38-0.25,0.6-0.39,1.03
		c-0.39,1.03-0.86,2.1-2.11,2.19c-1.65,0.14-2.28-0.63-3.23-2.05c-3.07-4.23-9.48-10.65-11.86-12.09
		c-5.21-3.22-10.72-5.58-16.67-6.99c-0.37-0.07-0.82-0.09-1.35-0.07c-3.57,0.35-3.71,6.09-3.36,9.66c0.45,3.72,0.79,7.61,1.71,11.23
		c1.1,4.36,3.49,8.07,6.61,11.4c1.28,1.42,2.71,2.73,4.19,4.12c0.25,0.37,0.45,0.67,0.71,1.04c0.71,1.37,0.54,2.89-0.8,3.8
		c-1.67,1.23-3.58,1.77-5.61,1.83c-1.05,0.06-2.08-0.34-3.17-0.35c-1.45-0.22-3.54,0.55-2.38,2.26c2.21,1.98,4.57,3.87,7.25,5.42
		c3.98,2.52,8.11,3.65,12.81,3.52c4.17,0.22,8.16-0.62,11.92-2.29c2.34-1.04,4.46-2.66,6.35-4.58c1.03,0.47,2.09,0.91,3.18,1.29
		c2.82,0.98,5.9,1.52,8.92,1.54c2.16,0.02,4.38-0.21,6.58-0.86c0.55,0.45,1.1,0.9,1.68,1.32c2.47,1.8,5.25,3.33,8.27,4.25
		c3,0.96,6.27,1.28,9.23,1.19c2.97-0.07,5.73-0.38,8.3-0.42c4.19-0.08,8.31,0.79,12.2,2.37c-5.41,0.83-11.43,0.09-16.65,2.03
		c-0.82,4.62-0.28,9.5,1.52,13.81c0.62,1.47,1.41,2.92,2.66,3.87c5.78,4.39,21.74,0.63,28.46,0.22c11.05-0.67,22.1-1.42,33.12-2.49
		c27.86-2.71,34.82-0.79,67.18-1.59c32.31-0.8,63.39,3.72,95.81-0.8c30.71-4.28,60.66-3.61,91.44-2.62
		c14.26,0.46,28.51,1.14,42.77,1.6c10.74,0.35,22.91,2.03,33.57,0.14c8.21-1.45,6.74-10.96,4.46-16.64
		c-1.62-4.02-8.85-4.93-16.39-4.87c2.38-0.55,4.81-0.83,7.26-0.79c2.57,0.04,5.33,0.35,8.3,0.42c2.96,0.09,6.23-0.24,9.23-1.19
		c3.02-0.93,5.8-2.45,8.27-4.25c0.58-0.42,1.14-0.87,1.68-1.32c2.2,0.65,4.42,0.88,6.58,0.86c3.02-0.02,6.1-0.57,8.92-1.54
		c1.1-0.38,2.15-0.82,3.18-1.29c1.89,1.92,4.02,3.54,6.35,4.58c3.76,1.67,7.75,2.52,11.92,2.29c4.69,0.13,8.82-1,12.81-3.52
		c2.68-1.56,5.04-3.44,7.25-5.42c1.16-1.72-0.93-2.48-2.38-2.26c-1.1,0.02-2.13,0.41-3.17,0.35c-2.02-0.06-3.94-0.6-5.61-1.83
		c-1.34-0.91-1.51-2.43-0.8-3.8c0.25-0.37,0.45-0.67,0.71-1.04c1.48-1.39,2.91-2.7,4.2-4.12c3.12-3.33,5.51-7.03,6.61-11.4
		c0.92-3.61,1.27-7.51,1.71-11.23C577.44,451.41,577.3,445.67,573.73,445.32z M498.17,419.28c-0.62-2.02,1.41-2.87,2.17-1.43
		c2.34,2.79,4.54,6.29,8.42,5.98c0.99-4.06,1.65-8.61,2.15-12.22c-2.72-2.22-4.28-4.17-6.3-6.36c-1.91-2.07-0.64-4.25,0.83-3.01
		c2.17,1.5,2.74,4.45,6.32,5.78c0.65-1.61,0.71-3.02,1.03-5c0.45-2.44,0.74-3.72,0.67-4.89c-0.76-1.32-1.44-2.06-2.77-3.75
		c-1.47-1.35-2.57-3.04-3.54-4.96c-0.76-1.44,1.03-2.07,1.69-1.22c1,1.21,1.99,2.78,3.11,4.12c0.44,0.61,2.12,2.55,2.39,1.74
		c0.38-3.5,1.61-7.67,1.54-11.42c0.04-0.82,0.41-1.5,0.68-2.32c0.01-0.35,0.15-0.81,0.62-0.8c0.7,0.03,0.67,0.73,0.67,0.85
		c0.27,1.89,0.43,3.65,0.24,5.4c-0.23,2.69-0.92,5.23-1.5,7.68c-0.02,0.47-0.42,1.62,0.16,1.88c3.93-1.36,6.17-4.55,9.3-6.53
		c1.08-0.66,0.55,0.96,0.53,1.31c-0.38,0.69-0.87,1.25-1.36,1.7c-2.69,2.7-5.47,4.58-8.83,6.43c-0.12-0.01-0.36,0.33-0.37,0.57
		c-0.26,3.27-1.67,6.26-1.34,9.56c2.34,0.1,4.04-1.24,5.73-2.46c0.96-0.55,1.45-1.11,2.3-1.66c1.34-1.12,2.82-0.23,2.07,0.91
		c-2.83,3.16-6.42,5-10.94,6.57c-0.32,2.1-0.75,3.95-1.21,6.39c-0.46,2.44-0.98,3.71-0.96,6.17c3.04,0.24,5.63,0,8.04-1.65
		c0.25-0.46,0.97-0.66,1.44-0.76c1.54-0.4,2.42,0.92,0.96,2.15c-0.25,0.34-3.36,1.85-5.02,2.25c-1.9,0.62-4.96,0.85-6.62,1.36
		c-0.3,1.22-0.71,2.37-1.12,3.49c-0.25,0.69-0.99,1.06-1.7,0.85h0c-0.72-0.21-1.14-0.96-0.95-1.68c0.27-1.01,0.45-2.05,0.62-3.14
		c-0.8-0.5-2.5-1.86-3.66-2.26C501.07,422.8,500.18,421.7,498.17,419.28z M487.18,460.09c-0.24-0.03-0.48-0.06-0.71-0.09l-0.69-0.19
		c-0.26-0.05-0.38-0.15-0.57-0.21c-0.17-0.1-0.35-0.19-0.52-0.32c-0.68-0.5-1.33-1.25-1.71-2.06c-0.37-0.81-0.52-1.66-0.36-2.21
		c0.18-0.58,0.33-0.9,1.14-1.44c0.31-0.19,0.57-0.3,0.74-0.32c0.1-0.06,0.15,0.04,0.23-0.01c0.08,0.02,0.16,0.07,0.26,0.07
		c0.41,0.17,1.11,0.77,1.68,1.61c0.58,0.83,1.07,1.86,1.39,2.91l0.21,0.78l0.14,0.75c0.01,0.24,0.04,0.41,0.05,0.71
		C488.01,460.09,487.59,460.11,487.18,460.09z M110.19,440.05c-0.72-0.95-1.45-1.92-2.09-3c-1.74,0-4.73,0.68-6.73,0.64
		c-1.7,0.1-5.12-0.43-5.46-0.68c-1.76-0.75-1.3-2.27,0.29-2.34c0.48-0.04,1.22-0.06,1.6,0.31c2.79,0.88,5.34,0.35,8.17-0.78
		c-0.71-2.36-1.58-3.42-2.73-5.62c-1.15-2.2-2.1-3.85-3.03-5.76c-4.78-0.18-8.76-0.88-12.39-3.08c-1.05-0.87,0.11-2.15,1.71-1.48
		c0.97,0.28,1.61,0.67,2.68,0.92c1.98,0.67,3.99,1.45,6.2,0.67c-0.65-3.25-2.88-5.69-4.08-8.74c-0.08-0.22-0.41-0.48-0.52-0.44
		c-3.76-0.78-6.96-1.77-10.33-3.56c-0.6-0.28-1.23-0.68-1.8-1.23c-0.12-0.33-1.1-1.72,0.12-1.41c3.57,0.98,6.65,3.37,10.8,3.51
		c0.47-0.42-0.25-1.4-0.4-1.84c-1.26-2.17-2.67-4.4-3.68-6.9c-0.7-1.62-1.06-3.35-1.35-5.24c-0.04-0.11-0.27-0.77,0.39-1.01
		c0.44-0.15,0.71,0.25,0.82,0.58c0.5,0.7,1.06,1.24,1.33,2.01c1.03,3.61,3.42,7.24,4.82,10.47c0.49,0.7,1.53-1.66,1.77-2.36
		c0.68-1.61,1.16-3.39,1.77-4.85c0.39-1.01,2.28-0.93,1.98,0.67c-0.37,2.12-0.93,4.05-1.94,5.78c-0.78,2.01-1.21,2.91-1.55,4.4
		c0.28,1.14,0.93,2.28,2.08,4.48c0.88,1.8,1.35,3.13,2.45,4.48c3.03-2.31,2.72-5.31,4.35-7.37c1.04-1.61,2.89,0.1,1.68,2.64
		c-1.29,2.69-2.21,5-4.16,7.93c1.54,3.31,3.5,7.46,5.64,11.05c3.8-0.85,4.88-4.83,6.3-8.19c0.31-1.6,2.5-1.38,2.49,0.73
		c-1.21,2.91-1.74,4.22-3.62,6.99c-0.99,0.72-2.22,2.52-2.83,3.24c0.48,1,0.96,1.93,1.51,2.82c0.39,0.64,0.21,1.47-0.41,1.88
		C111.45,440.77,110.64,440.63,110.19,440.05z M138.87,456.13c0.3-0.97,0.79-1.75,1.13-2.03c0.09-0.03,0.15-0.1,0.22-0.14
		c0.09,0.02,0.11-0.09,0.22-0.06c0.16-0.03,0.44,0,0.8,0.09c0.93,0.28,1.17,0.54,1.51,1.04c0.31,0.48,0.42,1.34,0.3,2.22
		c-0.12,0.89-0.52,1.79-1.03,2.47c-0.13,0.17-0.27,0.31-0.4,0.46c-0.16,0.11-0.24,0.25-0.48,0.37l-0.61,0.39
		c-0.22,0.09-0.44,0.19-0.66,0.29c-0.38,0.14-0.79,0.25-1.21,0.33c-0.08-0.29-0.1-0.46-0.16-0.69l-0.09-0.75l-0.03-0.8
		C138.39,458.23,138.56,457.1,138.87,456.13z M47.47,493.98c-1.24,0.41-3.89,0.67-4.19,0.55c-1.45-0.22-1.41-1.44-0.24-1.8
		c0.35-0.13,0.9-0.28,1.25-0.08c2.25,0.11,4.04-0.77,5.93-2.16c-0.98-1.62-1.84-2.23-3.12-3.65c-1.28-1.41-2.31-2.46-3.37-3.7
		c-3.59,0.79-6.69,1.04-9.81,0.11c-0.95-0.44-0.34-1.62,0.99-1.43c0.78,0.02,1.32,0.19,2.17,0.16c1.6,0.11,3.25,0.3,4.74-0.7
		c-1.11-2.29-3.24-3.68-4.73-5.71c-0.1-0.15-0.4-0.27-0.47-0.22c-2.95,0.14-5.52,0.03-8.37-0.65c-0.5-0.1-1.05-0.27-1.58-0.57
		c-0.15-0.22-1.15-1.07-0.18-1.07c2.85,0.03,5.6,1.22,8.72,0.52c0.27-0.4-0.46-0.99-0.66-1.29c-1.36-1.37-2.84-2.75-4.07-4.42
		c-0.83-1.07-1.44-2.29-2.02-3.63c-0.05-0.08-0.35-0.52,0.09-0.83c0.3-0.2,0.58,0.05,0.73,0.27c0.5,0.42,1.03,0.72,1.38,1.24
		c1.46,2.49,3.95,4.72,5.61,6.86c0.5,0.42,0.81-1.53,0.86-2.1c0.19-1.32,0.21-2.75,0.38-3.95c0.09-0.83,1.52-1.13,1.6,0.11
		c0.14,1.65,0.09,3.2-0.32,4.67c-0.19,1.65-0.34,2.4-0.3,3.57c0.43,0.8,1.13,1.52,2.41,2.93c1.01,1.17,1.61,2.06,2.69,2.86
		c1.81-2.31,1-4.48,1.81-6.33c0.46-1.4,2.17-0.49,1.76,1.64c-0.44,2.25-0.67,4.15-1.56,6.7c1.79,2.16,4.05,4.87,6.33,7.13
		c2.66-1.37,2.69-4.54,3.1-7.31c-0.08-1.25,1.59-1.51,2,0.06c-0.33,2.4-0.48,3.47-1.34,5.9c-0.6,0.73-1.16,2.31-1.48,2.96
		c0.55,0.65,1.09,1.25,1.67,1.81c0.42,0.4,0.44,1.05,0.06,1.48v0c-0.38,0.42-1.01,0.47-1.45,0.13c-0.72-0.57-1.45-1.15-2.14-1.83
		C51.06,492.53,48.97,493.62,47.47,493.98z M75.59,486.21c0.07-0.07,0.08-0.16,0.12-0.23c0.09-0.02,0.05-0.13,0.16-0.16
		c0.12-0.11,0.38-0.23,0.73-0.32c0.94-0.23,1.29-0.12,1.83,0.14c0.51,0.26,1.03,0.95,1.38,1.77c0.35,0.83,0.45,1.82,0.35,2.66
		c-0.02,0.21-0.08,0.4-0.12,0.6c-0.08,0.18-0.08,0.34-0.23,0.56l-0.33,0.64c-0.15,0.19-0.29,0.38-0.42,0.58
		c-0.26,0.32-0.56,0.61-0.88,0.89c-0.21-0.21-0.31-0.35-0.48-0.52l-0.46-0.61l-0.43-0.68c-0.55-0.94-0.97-2-1.19-2.99
		C75.4,487.55,75.43,486.63,75.59,486.21z M280.85,495.35c-1.32-2.84-4.5-5.47-7.92-7.64c1.28,0.11,2.58,0.08,3.85-0.07
		c1.06-0.12,2.14-0.31,3.16-0.68c1.01-0.37,1.96-0.91,2.77-1.73c2.15-2.17,2.82-5.74,3.24-9.07c0.03-0.25,0.06-0.49,0.09-0.74
		c0.01-0.07,0.01-0.13,0.02-0.2c0.01,0.06,0.01,0.13,0.02,0.19c0.03,0.25,0.05,0.5,0.09,0.74c0.42,3.33,1.1,6.9,3.24,9.07
		c1.04,1.05,2.32,1.64,3.65,2c0.75,0.2,1.52,0.33,2.28,0.41c1.78,0.2,3.63,0.2,5.4-0.15c-3.95,2.45-7.65,5.52-8.65,8.83
		c-0.02,0.06-0.03,0.11-0.04,0.17c-1.66-0.19-3.23-0.38-4.73-0.55c-0.45-0.05-0.9-0.1-1.35-0.15
		C284.2,495.62,282.5,495.46,280.85,495.35z M207.63,406.29c2.47-0.44,7.22,1.81,7.22,1.81s5.29-1.91,8.54-1.33l-8.43,12.61
		L207.63,406.29z M219.62,427.71c2.47-0.44,7.22,1.81,7.22,1.81s5.29-1.91,8.54-1.33l-8.43,12.61L219.62,427.71z M342.74,440.8
		l-8.43-12.61c3.25-0.58,8.54,1.33,8.54,1.33s4.75-2.24,7.22-1.81L342.74,440.8z M272.21,439.85l6.81-28.65l14.91-0.46l7.96,26.4
		l-14.23,15.34L272.21,439.85z M281.7,388.69c-6.05,6.44-15.56,10.7-18.74,12c-3.79-2.49-17.41-11.78-24.6-20.91
		C248.25,382.94,267.6,388.5,281.7,388.69z M332.83,379.91c-6.71,9.01-18.69,18.13-22.25,20.75c-3.25-1.34-12.66-5.58-18.67-11.97
		C305.57,388.49,323.45,383.09,332.83,379.91z M286.8,390.01c3.16,3.96,7.43,7.21,11.47,9.7c-1.27,3.27-2.36,5.18-3.13,6.26
		l-16.96,0.53c-1.05-1.4-2.5-3.53-3.86-6.16C278.63,397.76,283.38,394.3,286.8,390.01z M260.08,413.22c0,0,5.3-1.88,8.55-1.28
		l-8.51,12.56l-7.25-13.13C255.34,410.95,260.08,413.22,260.08,413.22z M301.06,411.95c3.25-0.6,8.55,1.28,8.55,1.28
		s4.74-2.27,7.21-1.86l-7.25,13.13L301.06,411.95z M332.57,411.67c0,0,4.7-2.35,7.18-1.97l-7.04,13.25l-8.71-12.42
		C327.23,409.88,332.57,411.67,332.57,411.67z M237.13,411.67c0,0,5.33-1.79,8.57-1.14l-8.71,12.42l-7.04-13.25
		C232.43,409.31,237.13,411.67,237.13,411.67z M241.76,432.07c2.47-0.44,7.22,1.81,7.22,1.81s5.29-1.91,8.54-1.33l-8.43,12.61
		L241.76,432.07z M312.18,432.54c3.25-0.58,8.54,1.33,8.54,1.33s4.75-2.24,7.22-1.81l-7.34,13.09L312.18,432.54z M285.23,370.57
		l-13.09-17.47c0,0,12.43-10.85,27.25,0.13L285.23,370.57z M399.81,366.7c3.29-3.61,7.6-6.28,12.27-7.99
		c1.18-0.41,2.42-0.8,3.76-0.99c1.33-0.19,2.8-0.21,4.26,0.18c1.48,0.36,2.85,1.24,3.87,2.3c0.52,0.53,0.95,1.1,1.34,1.68
		c0.18,0.3,0.37,0.59,0.54,0.9l0.47,0.99c0.56,1.36,0.77,2.84,0.69,4.24c-0.07,1.41-0.38,2.74-0.82,3.99
		c-0.66,1.87-1.64,3.53-2.75,5.06c0.01,0.11,0.03,0.22,0.03,0.34v25.79h0v4.89c1.85,0.63,3.46,1.86,4.55,3.56l1.71,2.67l24.65,38.53
		l3.44,5.38c0,0,0,0,0,0l0.33,0.52c0.66,1.03,1.08,2.14,1.28,3.28c0.32,1.9,0,3.87-0.97,5.65c-0.39,0.71-0.86,1.35-1.4,1.92
		c-1.62,1.68-3.85,2.64-6.29,2.64l0,0h-60.27c-3.25,0-6.13-1.7-7.69-4.56c-0.39-0.71-0.68-1.46-0.86-2.21
		c-0.54-2.27-0.15-4.66,1.16-6.72l0.33-0.52c0,0,0,0,0,0l29.52-46.14v0l0.29-0.45c1.09-1.7,2.7-2.93,4.55-3.56v-4.89h0v-20.39
		c-2.29,1.74-4.8,3.15-7.39,4.25c-0.16,0.07-0.35-0.01-0.42-0.17c-0.06-0.14-0.01-0.3,0.11-0.38c3.84-2.8,7.43-5.88,9.95-9.64
		c1.29-1.86,2.32-3.88,2.95-5.91c0.62-2.04,0.63-4.07-0.07-5.76l-0.31-0.62l-0.39-0.63c-0.28-0.4-0.57-0.78-0.9-1.09
		c-0.64-0.65-1.37-1.06-2.21-1.29c-1.68-0.46-3.84-0.15-6.01,0.43c-4.42,1.16-8.67,2.99-12.9,5.23c-0.16,0.08-0.35,0.02-0.44-0.13
		C399.7,366.95,399.72,366.8,399.81,366.7z M362.06,406.29l-7.34,13.09l-8.43-12.61c3.25-0.58,8.54,1.33,8.54,1.33
		S359.6,405.86,362.06,406.29z M349.35,305.56c5.06,24.42-9.41,39.72-30.94,39.82c-21.53,0.1-20.4-9.68-32.41-9.1
		c-12.01,0.58-16.97,11.66-34.93,11.26c-27.06-0.6-34.38-34.98-21.75-54.44c7.06-10.87,24.66-13.53,35.98-8.58
		c6.68,2.92,12.78,10.78,20.39,11.14c7.16,0.33,11.51-7.05,16.69-10.72c5.59-3.97,11.73-5.39,18.52-4.86
		C335.84,281.23,346.31,290.89,349.35,305.56z M132.28,257.03c-0.29-1.27,0.23-2.38,1.5-2.67c0.18-0.04,0.35-0.06,0.53-0.06
		c1.05,0,1.51,0.92,1.79,1.97l24.74,89.8l0,0l8.73,32.43c0.51,1.9-0.2,3.84-1.66,4.98c-0.49,0.38-1.06,0.67-1.69,0.84
		c-0.28,0.08-0.56,0.12-0.85,0.14c-0.07,0.01-0.13,0.01-0.2,0.01c-0.21,0.01-0.42,0-0.63-0.02c-0.09-0.01-0.18-0.01-0.26-0.02
		c-0.28-0.04-0.56-0.11-0.83-0.2c-0.03-0.01-0.05-0.02-0.08-0.03c-0.24-0.09-0.47-0.19-0.69-0.32c-0.08-0.05-0.16-0.1-0.24-0.15
		c-0.16-0.1-0.32-0.21-0.46-0.33c-0.08-0.07-0.16-0.14-0.24-0.21c-0.13-0.12-0.26-0.26-0.38-0.4c-0.07-0.08-0.14-0.16-0.2-0.25
		c-0.12-0.16-0.22-0.33-0.32-0.5c-0.05-0.08-0.1-0.16-0.14-0.24c-0.13-0.26-0.24-0.54-0.32-0.84c-0.01-0.05-0.03-0.12-0.04-0.17
		L132.28,257.03z M246.38,493.16c0.73-0.49,1.51-0.98,2.3-1.44c4.5-2.64,9.54-4.68,9.54-4.68c0.5-2.31,0.59-7.57,0.52-13.01
		c0-0.42-0.01-0.84-0.02-1.26c-0.02-1.26-0.05-2.51-0.08-3.73c-0.01-0.41-0.02-0.81-0.03-1.2c-0.01-0.43-0.03-0.86-0.04-1.28
		c-4.06-1.08-8.06-2.32-12.04-3.56c-0.4-0.13-0.63-0.56-0.5-0.96c0.11-0.36,0.46-0.57,0.82-0.53c6.91,0.75,13.66,2.12,20.38,2.9
		l5.05,0.51c1.69,0.12,3.37,0.29,5.07,0.35c3.38,0.22,6.76,0.28,10.14,0.27c3.38-0.03,6.76-0.12,10.13-0.39
		c2.95-0.18,5.88-0.49,8.81-0.87c2.88-0.44,6.04-1.04,9.36-1.83c-0.01,0.1-0.02,0.2-0.03,0.31c3.98-0.78,7.94-1.72,11.89-2.79
		l0.01,0c0.41-0.11,0.83,0.13,0.94,0.54c0.1,0.36-0.08,0.73-0.4,0.89c-4.07,2.03-8.35,3.67-12.73,4.96
		c-0.56,7.44-1.11,17.31-0.39,20.69c0,0,3.42,1.39,7.14,3.35c0.27,0.14,0.53,0.28,0.8,0.43c0.27,0.15,0.54,0.29,0.8,0.45
		c0.27,0.15,0.53,0.3,0.8,0.46c0.53,0.31,1.05,0.63,1.56,0.95c1.15,0.74,2.2,1.5,3.07,2.27c0.28,0.24,0.54,0.49,0.78,0.73
		c0,0,0.01,0.01,0.01,0.01c0.02,0.02,0.03,0.04,0.05,0.05c0.21,0.22,0.4,0.45,0.57,0.67c0.27,0.36,0.49,0.71,0.64,1.06
		c0.05,0.11,0.09,0.23,0.13,0.34c0.1,0.33,0.13,0.64,0.09,0.95l0,0c-0.01,0.11-0.03,0.22-0.06,0.33c-0.04,0.14-0.1,0.27-0.16,0.39
		c-0.02,0.04-0.05,0.07-0.07,0.11c-0.05,0.08-0.1,0.15-0.15,0.22c-0.03,0.04-0.07,0.07-0.11,0.11c-0.06,0.06-0.11,0.11-0.17,0.16
		c-0.04,0.03-0.09,0.06-0.13,0.09c-0.06,0.04-0.13,0.08-0.2,0.12c-0.05,0.03-0.1,0.05-0.15,0.07c-0.07,0.03-0.15,0.06-0.23,0.08
		c-0.06,0.02-0.11,0.03-0.17,0.05c-0.08,0.02-0.17,0.04-0.26,0.05c-0.06,0.01-0.12,0.02-0.18,0.03c-0.1,0.01-0.2,0.02-0.3,0.02
		c-0.06,0-0.12,0.01-0.18,0.01c-0.04,0-0.09,0-0.14,0c-0.22,0-0.44-0.02-0.68-0.05c-0.05-0.01-0.11-0.01-0.16-0.02
		c-0.27-0.04-0.54-0.08-0.82-0.15c-0.06-0.01-0.12-0.03-0.18-0.04c-0.26-0.06-0.52-0.13-0.78-0.21c-0.05-0.01-0.1-0.03-0.15-0.04
		c-0.3-0.09-0.61-0.19-0.92-0.31c-0.07-0.03-0.14-0.05-0.21-0.08c-0.29-0.11-0.59-0.22-0.89-0.34c-0.03-0.01-0.06-0.02-0.09-0.04
		c-0.32-0.13-0.65-0.28-0.97-0.42c-0.08-0.03-0.15-0.07-0.23-0.11c-0.32-0.15-0.65-0.3-0.97-0.46c-0.02-0.01-0.04-0.02-0.05-0.03
		c-0.31-0.15-0.62-0.31-0.92-0.47c-0.07-0.04-0.15-0.08-0.22-0.12c-1.01-0.54-1.98-1.11-2.84-1.66c-0.05-0.03-0.1-0.06-0.15-0.1
		c-1.45-0.93-2.58-1.78-3.07-2.31c0,0,1.63,4.49,2.29,8.88c0.04,0.26,0.07,0.52,0.11,0.77c0.44,3.6,0.13,6.94-2.39,7.48
		c-0.18,0.04-0.36,0.06-0.53,0.06c-0.13,0-0.25-0.02-0.36-0.04c-0.03-0.01-0.07,0-0.1-0.01c-0.15-0.03-0.29-0.08-0.42-0.15
		c-0.04-0.02-0.07-0.04-0.1-0.06c-0.1-0.05-0.19-0.11-0.28-0.18c-0.04-0.03-0.08-0.08-0.13-0.12c-0.07-0.07-0.15-0.13-0.22-0.2
		c-0.04-0.05-0.08-0.11-0.12-0.16c-0.06-0.08-0.12-0.15-0.18-0.24c-0.04-0.06-0.08-0.13-0.12-0.2c-0.05-0.09-0.11-0.18-0.15-0.27
		c-0.04-0.07-0.07-0.15-0.1-0.23c-0.05-0.1-0.09-0.2-0.13-0.3c-0.03-0.08-0.06-0.17-0.09-0.26c-0.04-0.11-0.08-0.22-0.11-0.33
		c-0.03-0.09-0.05-0.19-0.08-0.28c-0.03-0.12-0.07-0.24-0.1-0.36c-0.02-0.1-0.05-0.2-0.07-0.3c-0.03-0.13-0.06-0.25-0.08-0.38
		c-0.02-0.1-0.04-0.21-0.06-0.32c-0.02-0.13-0.05-0.27-0.07-0.41c-0.02-0.11-0.03-0.22-0.05-0.33c-0.02-0.14-0.04-0.28-0.05-0.42
		c-0.01-0.11-0.02-0.23-0.04-0.34c-0.01-0.14-0.03-0.29-0.04-0.44c-0.01-0.12-0.02-0.23-0.03-0.35c-0.01-0.15-0.02-0.3-0.03-0.45
		c-0.01-0.12-0.01-0.24-0.02-0.36c-0.01-0.15-0.01-0.3-0.02-0.46c0-0.12-0.01-0.24-0.01-0.35c0-0.15-0.01-0.31-0.01-0.46
		c0-0.12,0-0.23,0-0.35c0-0.15,0-0.31,0-0.46c0-0.12,0-0.23,0-0.35c0-0.15,0-0.3,0.01-0.45c0-0.12,0-0.24,0.01-0.35
		c0-0.15,0.01-0.29,0.01-0.44c0-0.11,0.01-0.22,0.01-0.34c0.01-0.15,0.01-0.29,0.02-0.43c0-0.11,0.01-0.22,0.01-0.32
		c0.01-0.13,0.01-0.25,0.02-0.38h0c0.1-1.82,0.25-3.31,0.33-4.01c0.01-0.09,0.02-0.17,0.03-0.23c0.01-0.13,0.02-0.19,0.02-0.19h0
		c0,0-0.01,0.01-0.01,0.01c0,0-0.02,0.02-0.04,0.03c-0.02,0.01-0.03,0.02-0.06,0.05c-0.05,0.04-0.12,0.1-0.21,0.17
		c-0.02,0.02-0.05,0.04-0.07,0.06c-0.09,0.08-0.2,0.17-0.33,0.27c-0.02,0.01-0.03,0.02-0.05,0.04c-0.14,0.11-0.3,0.24-0.47,0.37
		c-0.02,0.02-0.04,0.03-0.06,0.05c-0.4,0.32-0.88,0.69-1.42,1.08c-1.05,0.77-2.31,1.65-3.62,2.42c-0.06,0.04-0.12,0.07-0.19,0.11
		c-0.3,0.17-0.6,0.34-0.89,0.5c-0.03,0.01-0.06,0.03-0.08,0.04c-0.28,0.15-0.56,0.29-0.84,0.43c-0.05,0.03-0.11,0.05-0.16,0.08
		c-0.29,0.14-0.58,0.26-0.86,0.37c-0.06,0.02-0.12,0.05-0.17,0.07c-0.29,0.11-0.58,0.22-0.86,0.3c-0.01,0-0.02,0-0.02,0.01
		c-0.27,0.08-0.54,0.14-0.8,0.19c-0.05,0.01-0.1,0.02-0.15,0.03c-0.25,0.04-0.5,0.06-0.73,0.07c-0.05,0-0.1,0-0.15,0
		c-0.16,0-0.32-0.02-0.47-0.04c-0.05-0.01-0.09-0.01-0.14-0.02c-0.18-0.04-0.36-0.09-0.52-0.17c-0.03-0.01-0.06-0.03-0.09-0.05
		c-0.13-0.07-0.26-0.15-0.37-0.25c-0.04-0.03-0.08-0.06-0.11-0.1c-0.13-0.13-0.26-0.27-0.37-0.44c-1.18-1.89,1.23-4.34,4.31-6.51
		c0.44-0.31,0.89-0.61,1.35-0.91c0.23-0.15,0.46-0.29,0.69-0.44c0.46-0.29,0.92-0.56,1.38-0.83c0.68-0.4,1.35-0.76,1.97-1.1
		c2.07-1.11,3.64-1.82,3.64-1.82s-0.37-4.01-1.09-8.92c-0.17-1.13-0.35-2.32-0.55-3.51c-0.34-1.99-0.73-4.01-1.17-5.88
		c-0.09-0.4-0.19-0.8-0.29-1.18c-2.99,0.59-6.01,0.98-9.04,1.34c-3.49,0.33-6.99,0.5-10.5,0.54c-7.01-0.02-14.01-0.57-20.89-1.85
		c-0.3-0.06-0.59-0.12-0.89-0.18c-2.01,7.28-2.56,19.65-2.56,19.65s1.57,0.71,3.64,1.82c0.62,0.33,1.29,0.7,1.97,1.1
		c0.23,0.13,0.46,0.27,0.69,0.4c4.15,2.48,8.56,5.84,7.05,8.27c-0.11,0.17-0.23,0.31-0.37,0.44c-0.04,0.04-0.08,0.07-0.11,0.1
		c-0.12,0.1-0.24,0.18-0.37,0.25c-0.03,0.02-0.06,0.04-0.09,0.05c-0.16,0.08-0.34,0.13-0.52,0.17c-0.05,0.01-0.09,0.01-0.14,0.02
		c-0.15,0.02-0.31,0.04-0.47,0.04c-0.05,0-0.1,0-0.15,0c-0.23,0-0.48-0.03-0.73-0.07c-0.05-0.01-0.1-0.02-0.15-0.03
		c-0.26-0.05-0.52-0.11-0.8-0.19c-0.01,0-0.02,0-0.02-0.01c-0.28-0.08-0.57-0.19-0.86-0.3c-0.06-0.02-0.12-0.04-0.17-0.07
		c-0.28-0.11-0.57-0.24-0.86-0.37c-0.05-0.02-0.11-0.05-0.16-0.08c-0.28-0.13-0.56-0.28-0.85-0.43c-0.03-0.01-0.06-0.03-0.08-0.04
		c-0.3-0.16-0.6-0.33-0.9-0.51c-0.06-0.04-0.12-0.07-0.18-0.11c-0.29-0.17-0.58-0.35-0.87-0.53c-0.04-0.03-0.09-0.06-0.13-0.08
		c-0.27-0.17-0.54-0.35-0.8-0.52c-0.03-0.02-0.07-0.05-0.1-0.07c-0.28-0.19-0.54-0.37-0.81-0.56c-0.05-0.04-0.1-0.07-0.16-0.11
		c-0.26-0.18-0.51-0.36-0.74-0.54c-0.03-0.02-0.05-0.04-0.08-0.06c-0.22-0.16-0.44-0.32-0.64-0.48c-0.03-0.03-0.07-0.05-0.1-0.08
		c-0.21-0.16-0.4-0.31-0.58-0.45c-0.03-0.03-0.07-0.05-0.1-0.08c-0.17-0.14-0.34-0.27-0.48-0.38c-0.01-0.01-0.02-0.02-0.03-0.03
		c-0.13-0.11-0.25-0.2-0.35-0.28c-0.02-0.02-0.04-0.03-0.06-0.05c-0.09-0.08-0.17-0.14-0.22-0.18c-0.02-0.02-0.03-0.02-0.04-0.03
		c-0.03-0.02-0.06-0.05-0.06-0.05s0.01,0.07,0.02,0.2c0,0.03,0.01,0.07,0.01,0.1c0.01,0.04,0.01,0.08,0.02,0.14
		c0,0.04,0.01,0.09,0.02,0.14c0.01,0.06,0.01,0.12,0.02,0.18c0,0.05,0.01,0.1,0.02,0.15c0.01,0.08,0.02,0.17,0.03,0.26
		c0,0.05,0.01,0.1,0.01,0.15c0.01,0.09,0.02,0.17,0.03,0.26c0.03,0.33,0.06,0.69,0.09,1.09c0,0.02,0,0.03,0,0.05l0,0
		c0,0.01,0,0.03,0,0.04c0.01,0.08,0.01,0.17,0.02,0.25c0.01,0.13,0.02,0.26,0.03,0.39c0.01,0.09,0.01,0.18,0.02,0.27
		c0.01,0.14,0.02,0.28,0.03,0.43c0.01,0.09,0.01,0.18,0.02,0.27c0.01,0.15,0.02,0.3,0.02,0.45c0,0.1,0.01,0.2,0.01,0.3
		c0.01,0.15,0.01,0.3,0.02,0.45c0,0.1,0.01,0.21,0.01,0.32c0,0.15,0.01,0.31,0.01,0.46c0,0.11,0,0.22,0.01,0.34
		c0,0.15,0,0.31,0.01,0.47c0,0.11,0,0.22,0,0.34c0,0.16,0,0.32,0,0.47c0,0.11,0,0.23,0,0.34c0,0.16-0.01,0.32-0.01,0.48
		c0,0.11-0.01,0.23-0.01,0.34c-0.01,0.16-0.01,0.31-0.02,0.47c-0.01,0.11-0.01,0.23-0.02,0.34c-0.01,0.15-0.02,0.31-0.03,0.46
		c-0.01,0.11-0.02,0.23-0.03,0.34c-0.01,0.15-0.03,0.3-0.04,0.45c-0.01,0.11-0.02,0.23-0.03,0.34c-0.02,0.15-0.03,0.29-0.05,0.43
		c-0.01,0.11-0.03,0.22-0.04,0.32c-0.02,0.14-0.04,0.28-0.07,0.41c-0.02,0.1-0.04,0.21-0.06,0.31c-0.03,0.13-0.05,0.26-0.08,0.39
		c-0.02,0.1-0.04,0.2-0.07,0.3c-0.03,0.13-0.06,0.25-0.1,0.37c-0.03,0.09-0.05,0.19-0.08,0.28c-0.04,0.12-0.08,0.23-0.12,0.34
		c-0.03,0.08-0.06,0.17-0.09,0.25c-0.04,0.11-0.09,0.21-0.13,0.31c-0.03,0.08-0.07,0.15-0.1,0.23c-0.05,0.1-0.1,0.19-0.16,0.27
		c-0.04,0.06-0.07,0.13-0.11,0.19c-0.06,0.09-0.12,0.16-0.18,0.24c-0.04,0.05-0.08,0.11-0.12,0.16c-0.07,0.08-0.14,0.14-0.22,0.21
		c-0.04,0.04-0.08,0.08-0.12,0.11c-0.09,0.07-0.19,0.12-0.28,0.18c-0.03,0.02-0.06,0.04-0.1,0.06c-0.13,0.06-0.27,0.11-0.42,0.15
		c-0.03,0.01-0.07,0.01-0.1,0.01c-0.12,0.02-0.24,0.04-0.37,0.04c-0.17,0-0.34-0.02-0.53-0.06c-1.8-0.39-2.48-2.2-2.55-4.52
		c-0.02-0.7,0.01-1.44,0.08-2.2c0.05-0.51,0.11-1.02,0.19-1.54c0.12-0.78,0.26-1.55,0.43-2.31c0.05-0.25,0.11-0.5,0.17-0.75
		c0.74-3.2,1.69-5.82,1.69-5.82c-0.39,0.43-1.21,1.06-2.27,1.78c-0.04,0.03-0.09,0.06-0.13,0.09c-0.21,0.14-0.44,0.29-0.67,0.44
		c-0.05,0.03-0.1,0.06-0.15,0.1c-0.56,0.35-1.16,0.72-1.79,1.08c-0.04,0.02-0.09,0.05-0.13,0.07c-0.3,0.17-0.61,0.34-0.92,0.5
		c-0.07,0.04-0.15,0.08-0.22,0.12c-0.3,0.16-0.61,0.32-0.92,0.47c-0.02,0.01-0.04,0.02-0.05,0.03c-0.32,0.16-0.64,0.31-0.97,0.46
		c-0.08,0.04-0.15,0.07-0.23,0.11c-0.32,0.15-0.65,0.29-0.97,0.42c-0.03,0.01-0.06,0.02-0.09,0.04c-0.3,0.12-0.59,0.24-0.89,0.34
		c-0.07,0.03-0.14,0.05-0.21,0.08c-0.31,0.11-0.62,0.21-0.92,0.31c-0.05,0.02-0.1,0.03-0.15,0.04c-0.27,0.08-0.53,0.15-0.78,0.21
		c-0.06,0.01-0.12,0.03-0.18,0.04c-0.28,0.06-0.56,0.11-0.82,0.15c-0.06,0.01-0.11,0.01-0.16,0.02c-0.23,0.03-0.46,0.04-0.68,0.05
		c-0.04,0-0.09,0-0.14,0c-0.06,0-0.12-0.01-0.18-0.01c-0.1,0-0.2-0.01-0.3-0.02c-0.06-0.01-0.12-0.02-0.18-0.03
		c-0.09-0.01-0.18-0.03-0.26-0.05c-0.06-0.01-0.12-0.03-0.17-0.05c-0.08-0.02-0.16-0.05-0.23-0.08c-0.05-0.02-0.1-0.05-0.15-0.07
		c-0.07-0.04-0.14-0.07-0.2-0.12c-0.05-0.03-0.09-0.06-0.13-0.09c-0.06-0.05-0.12-0.1-0.17-0.16c-0.04-0.04-0.07-0.07-0.11-0.11
		c-0.06-0.07-0.1-0.14-0.15-0.22c-0.02-0.04-0.05-0.07-0.07-0.11c-0.06-0.12-0.12-0.25-0.16-0.39
		C241.29,497.28,243.45,495.14,246.38,493.16z M515.46,481.64c0.34-0.82,0.86-1.51,1.38-1.77c0.54-0.26,0.89-0.37,1.83-0.14
		c0.35,0.1,0.61,0.22,0.73,0.32c0.11,0.03,0.07,0.14,0.16,0.16c0.04,0.07,0.06,0.16,0.12,0.23c0.16,0.42,0.19,1.34-0.04,2.33
		c-0.22,0.99-0.64,2.05-1.19,2.99l-0.43,0.68l-0.46,0.61c-0.17,0.17-0.27,0.31-0.48,0.52c-0.32-0.28-0.63-0.57-0.88-0.89
		c-0.14-0.2-0.28-0.39-0.42-0.58l-0.33-0.64c-0.14-0.22-0.15-0.38-0.23-0.56c-0.04-0.19-0.09-0.39-0.12-0.6
		C515.01,483.46,515.12,482.47,515.46,481.64z M568.6,468.36c-0.53,0.3-1.08,0.47-1.58,0.57c-2.85,0.68-5.42,0.79-8.37,0.65
		c-0.07-0.05-0.37,0.07-0.47,0.22c-1.49,2.04-3.62,3.42-4.73,5.71c1.49,1.01,3.14,0.82,4.74,0.7c0.85,0.03,1.4-0.14,2.17-0.16
		c1.32-0.19,1.94,0.98,0.99,1.43c-3.13,0.93-6.22,0.69-9.81-0.11c-1.06,1.24-2.09,2.28-3.37,3.7c-1.28,1.42-2.14,2.04-3.12,3.65
		c1.89,1.38,3.68,2.27,5.93,2.16c0.35-0.2,0.9-0.04,1.25,0.08c1.17,0.36,1.21,1.58-0.24,1.8c-0.3,0.12-2.95-0.14-4.19-0.55
		c-1.5-0.36-3.59-1.44-4.88-1.78c-0.69,0.68-1.42,1.26-2.14,1.83c-0.44,0.35-1.08,0.29-1.45-0.13v0c-0.38-0.43-0.36-1.08,0.06-1.48
		c0.58-0.55,1.12-1.16,1.67-1.81c-0.32-0.65-0.88-2.23-1.48-2.96c-0.86-2.43-1-3.5-1.34-5.9c0.41-1.57,2.08-1.31,2-0.06
		c0.41,2.77,0.44,5.94,3.1,7.31c2.28-2.26,4.55-4.97,6.33-7.13c-0.88-2.55-1.12-4.45-1.56-6.7c-0.41-2.13,1.29-3.04,1.76-1.64
		c0.81,1.85,0,4.02,1.81,6.33c1.08-0.79,1.68-1.69,2.69-2.86c1.28-1.41,1.98-2.14,2.41-2.93c0.03-1.17-0.11-1.92-0.3-3.57
		c-0.42-1.48-0.46-3.03-0.32-4.67c0.08-1.25,1.5-0.94,1.6-0.11c0.17,1.2,0.18,2.62,0.38,3.95c0.04,0.57,0.36,2.52,0.86,2.1
		c1.66-2.14,4.15-4.37,5.61-6.86c0.35-0.52,0.88-0.82,1.38-1.24c0.15-0.22,0.43-0.47,0.73-0.27c0.45,0.3,0.15,0.75,0.09,0.83
		c-0.58,1.34-1.19,2.57-2.02,3.63c-1.23,1.67-2.71,3.05-4.07,4.42c-0.2,0.3-0.93,0.89-0.66,1.29c3.12,0.69,5.87-0.49,8.72-0.52
		C569.75,467.29,568.75,468.14,568.6,468.36z"/>
	<path class="st3" d="M157.82,160.95c2.39,1.23,8.59,9.99-1.27,19.49c-0.71-3.34-1.27-6.05-1.56-7.69
		C153.41,163.82,157.82,160.95,157.82,160.95z M468.55,255.12c0,26.99-5.62,52.66-15.74,75.92c-1.11-4.16-3.34-8.33-7.17-11.3
		c-2.93-2.27-6.3-3.46-9.76-3.46c-7.57,0-12.94,5.68-14.96,7.82c-0.86,0.91-1.72,1.8-2.56,2.65c-4.95,5.01-9.65,9.1-14.37,12.5
		c-3.09,2.23-6.42,4.29-9.65,6.18c-0.92-38.95-9.87-60.09-16.2-70.26c8.61-11.8,10.26-29.08,10.45-31.41
		c0.24-2.96-0.93-5.86-3.14-7.83c-1.75-1.55-3.99-2.39-6.29-2.39c-0.62,0-1.24,0.06-1.86,0.18c-19.82,3.97-41.3,10.42-47.11,12.2
		c-2.56-0.04-5.21-0.06-7.89-0.06c-10.08,0-19.83,0.27-29.25,0.52c-9.48,0.26-18.43,0.5-27.75,0.5c-14.02,0-26.17-0.58-38.13-1.84
		c-14.6-4.26-25.14-5.17-31.45-5.17c-6.04,0-9.38,0.79-10.27,1.03c-4.51,1.23-7.45,5.58-6.91,10.22
		c1.36,11.69,7.79,20.41,13.22,25.85c-6.83,10.54-17,31.65-18.91,65.84c-0.66-0.42-1.32-0.85-1.97-1.28l-23.79-88.33
		c-1.56-5.77-6.82-9.79-12.79-9.79c-0.99,0-1.99,0.11-2.96,0.34c-3.45,0.79-6.38,2.88-8.26,5.88c-1.88,3-2.48,6.55-1.69,10
		l13.01,56.71c-3.02,0.25-5.95,1.41-8.54,3.41c-6.34,4.9-8.31,13.08-8.04,19.09c0.19,4.16,1.26,8.34,3.09,12.09
		c0.21,0.44,0.44,0.88,0.69,1.34c-1.68,1.71-2.99,3.73-3.8,5.92c-19.15-29.71-30.26-65.08-30.26-103.06
		c0-105.21,85.29-190.5,190.5-190.5S468.55,149.92,468.55,255.12z M162.15,193.19c-1-0.1-1.93-0.11-2.82-0.05
		c-0.58-2.59-1.14-5.13-1.66-7.51c0.1-0.09,0.22-0.19,0.32-0.28c5.94-5.34,12.39-20.49-1.9-29.64c-5.56,1.82-7.45,13.32-4.09,27.11
		c-2.87,3.1-14.34,12.88-12.22,23.25c2.1,10.22,9.98,13.98,19.72,11.65c0.5,2.39,0.91,4.37,1.15,5.62c1.31,6.77-1.35,8.45-3.84,9.42
		c-1.41,0.55-3.09,0.26-3.73-0.44c1.98-0.29,3.79-1.98,3.64-4.39c-0.16-2.55-2.36-4.48-4.91-4.32c-2.55,0.16-4.48,2.36-4.32,4.91
		c-0.04,3.69,3.61,8.7,11.38,5.86c7.77-2.84,7.14-11.87,7.14-11.87s-0.57-2.46-1.45-6.3C174.99,211.17,175.36,194.57,162.15,193.19z
		 M229.93,142.85c-0.3-0.72-1.12-3-1.55-3.72c-0.47-0.7-0.89-1.44-1.4-2.11c-0.48-0.69-0.98-1.35-1.48-1.99
		c-0.48-0.66-1.04-1.21-1.51-1.81c-0.52-0.55-1.02-1.08-1.5-1.56c-2.13-2.15-9.6-5.33-9.6-5.33l-1.68,46.23
		c-2.94-1.4-4.82-2.18-8.55-1.68c-5.61,0.75-7.84,4.68-7.24,9.12s5.63,7.44,11.23,6.69s8.59-4.43,9.38-8.91
		c0.01-0.04,0.09-1.26,0.08-1.3l1.57-27.62c0.85,0.2,1.44,0.28,2.69,0.82c0.17,0.08,0.35,0.15,0.53,0.23
		c0.16,0.08,0.31,0.16,0.48,0.25c0.3,0.13,0.74,0.45,1.13,0.7l0.04,0.02l0.01,0.01c-0.02-0.02,0.06,0.05-0.05-0.04l0.02,0.01
		l0.07,0.05l0.14,0.1l0.28,0.2c0.19,0.13,0.36,0.28,0.55,0.43c0.36,0.3,0.73,0.61,1.08,0.95c1.43,1.33,2.7,3.04,3.55,4.97
		c0.82,1.93,1.19,4.1,0.89,6.11c-0.25,2.01,2.06-2.49,0.79-6.66c-0.69-2.28-1.67-4.47-2.93-6.34c-0.32-0.47-0.65-0.91-0.99-1.34
		c-0.17-0.21-0.34-0.42-0.51-0.63l-0.26-0.3l-0.13-0.15l-0.06-0.08l-0.02-0.02l-0.06-0.06l-0.01-0.01l-0.03-0.03
		c-0.35-0.36-0.6-0.67-1.05-1.05c-0.21-0.18-0.41-0.36-0.61-0.53c-0.19-0.15-0.38-0.3-0.56-0.45c-0.73-0.59-1.44-1.07-2.07-1.48
		c-0.63-0.41-1.19-0.76-1.67-1.02c-0.88-0.52-0.87-0.56-0.93-0.59l0.37-7.26c0.11,0.03,0.21,0.06,0.33,0.09
		c0.42,0.1,0.34,0.11,0.86,0.3c0.52,0.22,1.06,0.54,1.65,0.84c0.57,0.35,1.18,0.71,1.77,1.16c0.3,0.22,0.6,0.44,0.91,0.67
		c0.3,0.24,0.59,0.5,0.88,0.75c0.61,0.5,1.17,1.06,1.74,1.63c0.53,0.59,1.08,1.18,1.57,1.8c0.5,0.62,0.96,1.25,1.35,1.89
		c0.43,0.63,0.75,1.28,1.08,1.89C230.82,147.29,230.27,143.55,229.93,142.85z M270.75,190.55l-0.17-52.31l-5.36,3.03l0.16,48.66
		c-0.77-0.67-1.65-1.17-2.56-1.47c-1.92-0.67-3.88-0.7-5.65-0.4c-0.9,0.12-1.73,0.36-2.57,0.63c-0.43,0.12-0.76,0.29-1.14,0.43
		c-0.42,0.18-0.76,0.35-1.14,0.52c-1.44,0.75-2.7,1.65-3.72,2.66c-1.02,1.01-1.78,2.14-2.27,3.25c-0.5,1.11-0.7,2.19-0.72,3.09
		c0.01,0.46,0.01,0.84,0.09,1.22c0.07,0.35,0.13,0.74,0.2,0.9c0.13,0.4,0.2,0.61,0.2,0.61l0.02,0.06c0,0,0.12,0.23,0.34,0.67
		c0.24,0.42,0.63,1.03,1.28,1.66c0.65,0.62,1.57,1.23,2.7,1.64c1.13,0.42,2.45,0.66,3.87,0.65c1.43-0.02,2.91-0.26,4.48-0.75
		c1.48-0.49,3.05-1.22,4.5-2.25c1.47-1,5.31-4.16,6.22-5.96c0.46-0.89,0.78-1.91,0.85-2.98
		C270.44,193.42,270.94,191.31,270.75,190.55z M311.02,165.9l-0.17-52.31l-5.05,2.15l0.16,48.66c-0.77-0.67-1.65-1.17-2.56-1.47
		c-1.92-0.67-3.88-0.7-5.65-0.4c-0.9,0.12-1.73,0.36-2.57,0.63c-0.43,0.12-0.76,0.29-1.14,0.43c-0.42,0.17-0.76,0.35-1.14,0.52
		c-1.44,0.75-2.7,1.65-3.72,2.66c-1.02,1.01-1.78,2.14-2.27,3.24c-0.5,1.11-0.7,2.19-0.72,3.09c0.01,0.46,0.01,0.84,0.09,1.22
		c0.07,0.35,0.13,0.73,0.2,0.9c0.13,0.4,0.2,0.61,0.2,0.61l0.02,0.06c0,0,0.12,0.23,0.34,0.67c0.24,0.42,0.63,1.03,1.28,1.66
		c0.65,0.62,1.57,1.23,2.7,1.64c1.13,0.42,2.45,0.66,3.87,0.65c1.43-0.02,2.91-0.26,4.48-0.75c1.48-0.49,3.05-1.22,4.5-2.25
		c1.47-1,5.31-4.16,6.22-5.96c0.46-0.89,0.78-1.91,0.85-2.98C311.01,167.87,311.21,166.66,311.02,165.9z M361.63,132.58
		c0,0-5.13,3.14-6.6,4.19c-0.8,0.44-8.6,5.55-10.59,7.04c-2.94,2.2-4.77,4.06-5.92,5.78c-1.55,2.31-1.21,5.78-1.16,6.47
		c0.13,0.68,0.21,1.35,0.39,1.98c0.36,1.26,0.81,2.43,1.36,3.46c0.31,0.51,0.57,0.99,0.88,1.46c0.3,0.43-0.2-2.68-0.28-3.22
		c-0.69-4.97,1.61-6.42,2.44-7.74c0.26-0.42,1.85-1.72,5.61-4.1c1.87-1.19,3.67-2.78,6.7-3.12l-4.86,37.4
		c-1.93-2.41-5.43-3.9-9.33-3.65c-5.72,0.37-10.12,4.35-9.83,8.89c0.29,4.54,5.17,7.92,10.89,7.55c5.23-0.34,12.47-5.56,12.92-9.6
		c0,0,0.5-2.85,0.5-2.85L361.63,132.58z M418.61,177.86c-0.16-0.23-0.32-0.35-0.47-0.4l0.02-0.08l-33.66-0.82l-7.34,34.41
		c-1.3-1.79-3.7-3.01-6.48-3.07c-4.23-0.09-7.71,2.56-7.78,5.91c-0.07,3.35,3.3,6.15,7.52,6.24c4.23,0.09,9.89-2.13,10.74-4.85
		c0.03-0.1,0.26-1.06,0.26-1.17l4.71-22.71l24.95,1.42l-3.92,18.35c-1.3-1.79-3.7-3.02-6.48-3.07c-4.23-0.09-7.71,2.56-7.78,5.91
		c-0.07,3.35,3.3,6.15,7.52,6.24c4.23,0.09,8.83-1.12,10.32-4.88c0.04-0.1,0.33-1.12,0.32-1.23l6.4-30.7
		C417.54,183.38,418.61,177.86,418.61,177.86z M153.84,199.35c-5.59,4.66-1.41,10.59-1.41,10.59c-6.7-2.35-6.9-13.13,1.98-15.85
		c-0.76-3.5-1.28-5.84-1.28-5.84l0.03-0.03c-5.56,4.72-9.96,9.48-10.38,14.6c0.82,13.55,11.19,12.75,15.94,11.66
		c-1.11-5.23-2.1-10.2-3.3-15.75C154.88,198.87,154.29,198.97,153.84,199.35z M160.46,198.18c1.33,5.92,2.2,10,3.22,14.46
		C171.59,206.09,166.79,199.19,160.46,198.18z M386.92,187.42l24.96,1.42l0.68-3.31l-25.01-1.25L386.92,187.42z"/>
</g>
</svg>
